<svg id="Capa_1" data-name="Capa 1" xmlns="http://www.w3.org/2000/svg" viewBox="0 0 1000 1000"><defs><style>.cls-1{fill:#fff;}</style></defs><path class="cls-1" d="M420.66,837.64c-24.84-5.22-49.6-11.57-67.1-31.4a163,163,0,0,1-25-38c-4.42-9.42-8.93-12.62-18.95-12.28-21.49.73-43,.5-64.53.12-17.6-.3-28.86-10.33-27.77-24.94,1.22-16.44,11.52-23.5,27.31-23.55,22.13-.07,44.29.66,66.36-.55,5.43-.29,13.19-5.62,15.36-10.6,19.88-45.62,55.15-70.94,100.34-70.64,45,.31,79.81,25.31,98.79,70,2,4.66,7.48,11.08,11.44,11.14,51.55.75,103.12.5,149.69.5,14.07-20.2,23.5-39.52,38-53.54,51-49.17,137.3-32.45,165,32.6,8.1,19,18,23,35.38,21.15,7.82-.82,15.79-.14,24.92-.14.6-6,1.44-10.64,1.45-15.28.09-55.94.46-111.88-.4-167.8-.12-7.9-5-16.82-10.09-23.37-28.61-36.77-65.66-49.5-112.56-44.78-41.38,4.15-83.51,1-125.31.84-29.76-.07-41.56-11.68-41.62-41.19-.13-60.23,0-120.47,0-180.71V213H260.22c-2.46,0-4.92-.06-7.38,0-15.58.49-30.65-1.14-35-19.45-4.2-17.69,8.37-25.21,22-31.2H682.66c25,9.19,30.72,29.17,26.89,54.86,24.63,0,46.6-.09,68.57,0,46.57.23,79.22,23,95.49,66.89,13,35.08,24.45,70.84,39.15,105.19,7.21,16.86,18.74,32.57,31,46.37,17.41,19.53,37.35,36.83,56.2,55.08V734.32c-10.32,16.61-24.89,23.42-44.66,22.09-18.84-1.27-37.84-.28-49.05-.28-19.6,23.42-33.07,45.12-51.87,60.15-14.4,11.49-35.54,14.55-53.68,21.36H789.67c-45.36-8.3-79.53-30.35-95.65-75.9-1.15-3.25-9.93-5.31-15.18-5.37-40.51-.43-81,.57-121.52-.59-18.62-.54-32.23,1.26-38.14,22.64-2.74,9.91-11.71,18.5-19,26.65C482,825.32,457,831.94,431.73,837.64ZM711.57,265.88V408.41h156c-14.75-39.86-27.85-76.67-42-113-7-18-21.32-28.63-40.92-29.29C760.85,265.26,737,265.88,711.57,265.88ZM425.92,674.46c-30.89.11-56.26,25.27-56.44,56s25,56.18,55.87,56.47c31.82.3,57.82-25.45,57.41-56.84C482.36,699.37,456.8,674.36,425.92,674.46ZM795.49,786.92c31-.09,56.25-25.11,56.46-55.91s-25-56.2-55.86-56.52c-31.64-.33-57.83,25.59-57.43,56.85C739,762,764.58,787,795.49,786.92Z"/><path class="cls-1" d="M0,450.18c11.15-4.85,22.27-13.84,33.47-13.93,123.42-1,246.85-.65,370.28-.59,5.49,0,13.11-1.4,16,1.54,7.1,7.15,16.46,16.47,16.45,24.9,0,7.18-11.2,15.12-18.72,21.13-3.07,2.45-9.51.85-14.41.85-122.82,0-245.63-.15-368.44.26C20,484.39,8.15,481.4,0,468.63Z"/><path class="cls-1" d="M276.47,300q61.74,0,123.49,0c5.52,0,11.13-.15,16.53.74,13.41,2.19,21,10.84,20.92,24s-8.2,22-21.44,23.56c-10.92,1.3-22.08.68-33.13.68q-115.18.06-230.39,0c-5.52,0-11.13.37-16.56-.4-13.92-2-22.79-9.73-22.62-24.35s9.19-22.52,23.15-23.81c11-1,22.09-.47,33.15-.48Q223,300,276.47,300Z"/><path class="cls-1" d="M174,619.83c-26.4,0-52.8.24-79.2-.08-18-.22-28.66-9.44-28.9-24C65.68,580.94,76,571.35,94,571.26q80.11-.42,160.24,0c17.83.08,29,9.57,29.23,23.74.28,14.55-11.65,24.62-30.26,24.8C226.83,620,200.43,619.84,174,619.83Z"/></svg>