<svg id="Capa_1" data-name="Capa 1" xmlns="http://www.w3.org/2000/svg" viewBox="0 0 1000 1000"><path d="M0,886.7C11.72,860.51,20,832,35.89,808.62c29-42.7,72.41-65.36,124.47-74.18-33.32-9.54-60.93-26.79-78.84-56.7s-21.81-62.06-11.67-95.42C85.2,531.81,134.2,497.83,187,500.46s97.52,39.82,108.66,90.17c13.84,62.58-11.05,101.81-85.76,141.31l107.65,50.22c38.18-46.74,92.37-77.71,162.06-86.2-97.67-29.82-147-97.27-134.19-179.45,12.06-77.2,77.14-133.35,154.59-133.36s142.54,56.09,154.64,133.3c12.87,82.16-36.36,149.48-134,179.48,69,8.58,123.1,38.59,161.75,86.51l107.68-50.56C714.65,692,688.67,649.6,705.16,586.66c13.63-52,63.73-88.66,118-86.23C878.09,502.89,923,541.74,933.62,596c11.77,60-19.38,106.19-95.68,139.21,46.45,6.91,84.28,26.15,115.33,58.82,25,26.31,37.38,58.62,46.73,92.63v80.91H0Zm695.56,41.93c-4-74.89-35.38-132.5-99.83-168.38C526,721.44,455.6,724.92,389.52,769.52c-55.37,37.36-82.39,91.4-84.64,159.11Zm-78.71-389c.32-64.51-52-117.53-116.29-117.9S383.43,474,383.15,538.53a116.85,116.85,0,1,0,233.7,1.11ZM260,928.65c10.16-35.1,20-67.6,28.56-100.46,1.18-4.53-3-12.25-7-16.07-71.28-67.88-193.87-42.36-232.06,48.2-9.23,21.87-13,44.58-8.07,68.33Zm698.7,0c8.35-58.83-22.8-114.16-78.28-140.74-54.19-26-127.54-14.14-164.82,27-2.92,3.22-5.29,9.47-4.25,13.32C720.17,861,729.87,893.57,740,928.66ZM259.46,616.87c-.16-42.24-35-77.35-77.15-77.78-42.87-.44-78.58,35.33-78.38,78.5.2,42.37,34.85,77.36,77.1,77.84C223.68,695.91,259.63,659.9,259.46,616.87Zm636.62.65c.16-43.15-35.62-78.92-78.46-78.43-42.17.49-77,35.61-77.08,77.85-.14,43,35.87,79,78.5,78.49C861.28,694.9,895.92,659.87,896.08,617.52Z"/><path d="M510.12,32.39c11.75,22.62,24.47,44.8,34.88,68,6.2,13.84,13.7,21.22,29.62,22.1a336.42,336.42,0,0,1,58,8.5c8,1.89,18.09,8.25,21,15.17,2.28,5.51-3.13,16.61-8.32,22.35-14.46,16-31.37,29.75-45.61,45.89-5.27,6-8.61,16.36-8,24.34,1.58,19.41,7.11,38.49,8.85,57.9.88,9.73.07,25.28-5.56,28.54-7.43,4.3-21.3,1.41-30.71-2.49-18.61-7.71-35.71-19-54.18-27.14-6.19-2.73-15.66-2.57-21.87.2-19,8.51-36.82,19.86-55.93,28.17-8.29,3.6-22.46,6.65-27.11,2.43-6.15-5.61-8.22-18.81-7.39-28.35,1.74-20.07,7.48-39.78,9.53-59.84.75-7.38-2.23-17.19-7.11-22.69C386.33,199.87,369.83,186.62,356,171c-6-6.76-12.56-18.55-10.4-25.39s14.28-12.93,23.05-14.94c19.65-4.5,40.22-5,59.8-9.71,8.26-2,17.51-8.83,21.94-16.12,14.25-23.49,26.47-48.2,39.47-72.44ZM403.66,160.85c19,21.18,38.56,34.14,43.89,51.48,5.53,18-2.74,40.26-5.55,65.92,38.37-34.95,76-35.61,114.54-.53-2.86-25.84-11.26-47.73-5.56-64.94,5.92-17.85,25.49-31.18,39.61-47.09-20.67-4.56-44.52-3.76-59.58-14.87s-21.28-34.11-33.88-56.29C485.46,142.66,459.22,169.51,403.66,160.85Z"/><path d="M87.26,409.06c2.27-14,5.94-28.58,6.5-43.27a40.07,40.07,0,0,0-7.63-24.05C78,331.13,66.81,323,57.75,313.05c-13.62-15-9.38-33.79,9.72-34.11,43.2-.73,68.53-19.78,82.39-60.35,5.73-16.79,28.3-16.38,34,.82,13.36,40.16,38.22,58.6,80.77,59.29,20.28.33,26.47,22.06,9.69,34.52C241.42,337.65,231.94,366,244.85,405c6.27,18.94-12.77,33.82-28.74,22.34-34.73-25-65.78-24-100.06.42C102.13,437.68,87.4,426.61,87.26,409.06ZM201.32,374c-10.94-27.23-3.06-46.22,19.18-63.09-29.88,3.15-44.52-13.4-55.35-38.35-5.23,30.56-26.91,36.58-56.69,38.8,28,16.88,33.93,36.46,23.72,61.34C169.86,361.69,169.86,361.69,201.32,374Z"/><path d="M752,401.5c18.72-35.13,2-63.55-30.23-89.23C706.35,300,712.61,282.78,732,278.15c11.76-2.81,23.91-5.45,35.88-5.47,16.3,0,23.91-8.62,29.41-22.22a232.57,232.57,0,0,1,15.24-30.7c9.64-16.35,28.81-18.29,34.47-1.6,14.09,41.56,40.77,59.86,84.09,61.14,17.65.52,23.24,21.7,8.34,32.87-33.84,25.36-44.05,54.86-30.17,95.35,5.58,16.28-13.58,30.51-27.73,20.35-35.12-25.19-66.83-25.18-101.94,0C765.29,438.17,750.74,425.7,752,401.5Zm24.59-89c25.49,14.68,28.48,35.81,21.54,61.69,22.18-16.49,42.69-15.85,64.82-.37-7.76-26.18-1.33-46.15,20.71-62.37-28.49.64-44.44-13-53.74-38.75C823.07,301.58,803.31,310.22,776.6,312.46Z"/><path d="M642.88,874.8c-2.52,3-6.08,10.73-11.76,12.89s-16,1.16-19.8-2.78a754.17,754.17,0,0,1-51.17-58.5c-3.5-4.44-3.86-14.87-1-19.82s11.68-9.46,17.78-9.34C596,797.63,642.82,851.14,642.88,874.8Z"/><path d="M495.68,815.15c-4.85-7.44-14.15-15.43-13.33-22.17.87-7,11.48-12.89,17.84-19.26,6.22,6.5,16.72,12.55,17.45,19.61.7,6.75-8.75,14.56-13.74,21.9Z"/></svg>