<svg id="Capa_1" data-name="Capa 1" xmlns="http://www.w3.org/2000/svg" viewBox="0 0 1000 1000"><path d="M.58,439.34Q67,358.19,133.34,277q26.82-32.86,53.24-66.07c9.68-12.21,20.49-14,33.4-5.4,7.83,5.24,16.3,9.59,23.76,15.3,54,41.26,115.06,66.09,181.3,78.93,8.29,1.61,18.12,3.23,25.49.35C523,271.84,598.4,268.05,675,270.81c11.77.42,25-4.28,35.46-10.25,25.71-14.63,50.23-31.36,75.2-47.29,30.63-19.53,32.48-19.18,55.2,10.37q73.28,95.28,146.64,190.5c3.6,4.66,8,8.73,12,13.07v16.18c-4.72,4.75-8.8,10.45-14.25,14.11-69,46.3-113,111.14-141.84,187.87-4.8,12.76-8.7,22.61-2.76,37.25,10.83,26.71,3.77,52.87-18.22,71.35-12.81,10.76-30.14,16.14-47.29,24.88-9.15,41.67-18.81,51.33-70.14,67.62-6.47,37.78-23.95,59.51-56,65.36-11.83,2.15-14.74,7.22-17,17.62-7.15,33.08-35.93,57.32-68.1,54-17.85-1.82-34.94-11.19-52-17l-50.19,26.88H445.41c-32.85-9-56.36-27.49-61.88-62.24-51.94-4.12-70.52-20.36-81.26-69.4-49.91-12.68-59.2-23.43-70.18-81.27-57.58-13.25-76.26-70-42.31-117.48-45.86-65.66-92-131-157.94-179C20.53,475.67,11,465,.58,455.52ZM487.91,828.56c48,20.61,66.24,48.75,54.16,89-5.56,18.54,4.42,25.34,16.95,25.69,10.29.29,25.79-5.6,30-13.5,4.65-8.85,3.07-25.75-2.82-34.34C574.91,879,558.8,865.88,544.5,851.6c-10.13-10.13-16.4-21.22-3.75-32.9,11.6-10.73,22.16-4.48,31.52,5.13,12.69,13,25.38,26.08,38.44,38.73,15.34,14.84,31.66,16,44.77,3.78S668,835.51,653,820c-22.46-23.26-45.47-46-68.23-69-3.79-3.83-7.58-7.67-11.3-11.56-9.29-9.69-11.48-20.31-1.14-30.08,9.62-9.09,19.7-6.3,28.57,2.33,4.82,4.7,9.54,9.51,14.29,14.29,22.79,23,45.19,46.28,68.49,68.7,13.5,13,31.67,12.32,43.3.17s11.32-27.57-.73-41.82c-3.47-4.11-7.45-7.79-11.25-11.62q-54.72-55.3-109.52-110.56c-9.79-9.82-17.9-20.6-6-32.93,12.9-13.35,24.12-4.67,34.34,5.75q35.39,36.08,71,71.88c16.11,16.28,31.86,33,48.51,48.66,14.1,13.32,31.09,13.12,43.33.91,12-11.93,11.6-29-1.08-43.38-3.11-3.53-6.62-6.71-10-10C728.54,614.54,668.92,559.57,615.1,499.4c-34.67-38.75-72.59-58.41-123.94-55.31-10.79.65-17,2.65-22.13,12.4-12.25,23.19-25.55,45.84-38.72,68.53-22,37.9-61.21,50.82-95.93,31.85-35.79-19.56-46.24-60.8-24.71-99.45,21.29-38.2,43.09-76.11,64.56-114.21,2.46-4.37,4.22-9.13,6.73-14.63-16-4.37-30-9.21-44.52-11.71-5.8-1-14.95,1.09-18.42,5.25Q233.87,423,151.18,525c-2.88,3.53-4.46,12.08-2.26,15.18C171.48,571.89,194.94,603,218,634c57.83-29.74,88.6-18.68,118,41.22,49.55-1.2,67.83,13.75,84.81,69.35C470.55,754.64,489.1,777.87,487.91,828.56ZM804.57,636.35c16.46-34.53,30.78-66.26,46.73-97.15,5.8-11.23,5.2-18.43-2.72-28.31C804.37,455.78,759.28,401.25,718,344c-19.18-26.57-39.75-37.29-71.78-34.09-32.63,3.25-66.38-1.52-98.34,4.32-40.81,7.46-80.47,21.58-120.26,34-7.36,2.28-15.18,8.67-19.14,15.34-22,37-43,74.51-64,112.05-11.26,20.1-7.5,38.23,9,46.84,16,8.36,32,2.2,43.31-17.37,15.45-26.78,31.13-53.46,45.44-80.85,8.31-15.91,19.06-22.23,37.21-20,26.69,3.27,53.87,2.9,80.39,7,12.82,2,27.33,7.74,36.43,16.58,59.89,58.13,118.53,117.53,177.51,176.59C783.52,614.19,793,624.37,804.57,636.35ZM209.41,245.2l-162,200.69,68.93,59.35,172.11-209.6ZM953,433.71c-49.25-63.93-96.77-125.63-144.93-188.16L729,295.91,884,493.1ZM450,809.91c-3.83-5-8.45-16.89-16.55-20.18-9-3.64-24.32-3.45-31.3,2.1a307.75,307.75,0,0,0-52.34,52.57c-5.54,7.21-5.37,24.8-.18,32.58s25.37,15.53,29.5,12c24.62-20.76,46.53-44.74,69.17-67.81C449.4,820.07,448.94,817.35,450,809.91Zm-96-97.16c-8.36,2.16-13.39,1.94-15.88,4.34-21.07,20.37-43.24,40-61.32,62.79-4.51,5.69,1.12,26.51,8.49,32.5s26.65,7.29,34,1.75c20.09-15.24,37.9-34.11,53.85-53.79,5.24-6.46,5.36-21.22,1.75-29.56S360,717.63,354,712.75ZM236.25,741.22c24.43-.48,59.12-35.93,59.1-54.34,0-22.71-25.51-37.87-44.37-24.82-13,9-25.2,20.62-33.79,33.69-4.74,7.23-4.54,21.42-.6,29.58S231.92,738,236.25,741.22ZM506.3,892.34c-3.1-3.93-7.84-15.15-16-18.86s-22.1-3.55-29.52,1.17A107,107,0,0,0,428.56,907c-4.72,7.48-5.26,21.85-1.07,29.5s16.19,14.2,25.51,15.37C471.18,954.16,506,917.57,506.3,892.34Z"/><path d="M510.11,6.65c2.26,3.21,6.64,6.6,6.39,9.59-.73,8.5-1.1,18.78-6.05,24.54-3.2,3.72-17.74,3.73-20.92,0-4.95-5.76-5.3-16-6-24.55-.25-3,4.13-6.38,6.39-9.59Z"/><path d="M413.54,213.12c0,16.65-15.59,25.81-28.91,18.38-4.58-2.56-8.33-6.79-12.13-10.58q-59.38-59.25-118.66-118.63c-2.85-2.85-7.61-5.71-7.88-8.88-.71-8.45-2.62-20.31,1.89-24.71s20.08-5.71,24.33-1.63c46.61,44.8,92,90.86,137.49,136.81C412.23,206.46,412.73,211.08,413.54,213.12Z"/><path d="M761.53,80.22c-4.72,7.44-7.37,13.81-11.86,18.36C708,140.73,665.89,182.52,624,224.52c-9.7,9.73-20.54,14.73-31.66,3.89-11.32-11-6-21.86,3.7-31.49,42-41.87,83.59-84.13,126.25-125.3,5.61-5.41,16.71-7.81,24.8-7C752.19,65.14,756.38,74.29,761.53,80.22Z"/><path d="M519.22,160.67c0,17.44.12,34.88,0,52.31-.1,12.64-6.19,20.91-19.22,20.9s-19.13-8.33-19.17-20.95c-.09-35.55-1.11-71.15.86-106.59.42-7.53,11.95-14.44,18.37-21.63,6.39,7.21,17,13.75,18.31,21.78C521.14,124.15,519.21,142.57,519.22,160.67Z"/></svg>