<svg xmlns="http://www.w3.org/2000/svg" viewBox="0 0 1000 1000"><defs><style>.cls-1{fill:#231f20;}.cls-2{fill:#f79410;}.cls-3{fill:#ff5f00;}.cls-4{fill:#eb001b;}.cls-5{fill:#f79e1b;}</style></defs><g id="Color"><g id="MASTER_CARD" data-name="MASTER CARD"><path class="cls-1" d="M980.17,878.36v2H982a2,2,0,0,0,1-.25.88.88,0,0,0,.37-.77.84.84,0,0,0-.37-.74,1.85,1.85,0,0,0-1-.26h-1.87Zm1.89-1.41a3.45,3.45,0,0,1,2.24.65,2.12,2.12,0,0,1,.78,1.77,2,2,0,0,1-.63,1.55,3,3,0,0,1-1.79.75l2.5,2.85h-1.92l-2.3-2.83h-.75v2.83h-1.61V877h3.48Zm-.5,10.18a6.39,6.39,0,0,0,5.81-3.86,6.53,6.53,0,0,0,0-4.95,6.63,6.63,0,0,0-1.36-2,6.36,6.36,0,0,0-2-1.35,6.21,6.21,0,0,0-2.45-.47,6.46,6.46,0,0,0-2.5.47,6.36,6.36,0,0,0-2,1.35,6.47,6.47,0,0,0-1.33,7,6,6,0,0,0,1.33,2,6.55,6.55,0,0,0,2,1.36,6.49,6.49,0,0,0,2.5.5Zm0-14.45a8.35,8.35,0,0,1,5.87,2.4,7.91,7.91,0,0,1,1.77,2.59,8,8,0,0,1,0,6.33,8.23,8.23,0,0,1-1.77,2.59,8.76,8.76,0,0,1-2.63,1.75,8.05,8.05,0,0,1-3.24.65,8.21,8.21,0,0,1-3.28-.65,8.42,8.42,0,0,1-2.66-1.75,8.54,8.54,0,0,1-1.74-2.68,8.06,8.06,0,0,1,0-6.32,7.85,7.85,0,0,1,1.77-2.6,8.11,8.11,0,0,1,2.65-1.75,8.6,8.6,0,0,1,3.28-.65ZM216.05,843.47c0-14.43,9.45-26.27,24.9-26.27,14.75,0,24.71,11.33,24.71,26.27s-10,26.27-24.71,26.27c-15.45,0-24.9-11.85-24.9-26.27Zm66.44,0V802.42H264.64v10c-5.66-7.39-14.24-12-25.91-12-23,0-41,18-41,43.09s18,43.09,41,43.09c11.67,0,20.25-4.64,25.91-12v10h17.83v-41Zm602.88,0c0-14.43,9.45-26.27,24.9-26.27C925,817.2,935,828.53,935,843.47s-9.94,26.27-24.71,26.27c-15.45,0-24.9-11.85-24.9-26.27Zm66.45,0v-74H934v42.94c-5.66-7.39-14.25-12-25.92-12-23,0-41,18-41,43.09s18,43.09,41,43.09c11.67,0,20.26-4.64,25.92-12v10h17.85ZM503.94,816.35c11.5,0,18.88,7.21,20.77,19.9H482.13c1.91-11.85,9.1-19.9,21.81-19.9Zm.36-16c-24.05,0-40.87,17.5-40.87,43.09,0,26.09,17.5,43.09,42.06,43.09,12.36,0,23.68-3.08,33.64-11.5l-8.74-13.22a39.13,39.13,0,0,1-23.88,8.58c-11.5,0-22-5.32-24.54-20.09H542.9c.17-2.22.35-4.46.35-6.86-.18-25.58-16-43.09-39-43.09Zm215.41,43.09c0-14.43,9.45-26.27,24.89-26.27,14.76,0,24.72,11.33,24.72,26.27s-10,26.27-24.72,26.27c-15.44,0-24.89-11.85-24.89-26.27Zm66.43,0v-41H768.31v10c-5.68-7.39-14.25-12-25.92-12-23,0-41,18-41,43.09s18,43.09,41,43.09c11.67,0,20.24-4.64,25.92-12v10h17.83V843.44Zm-167.19,0c0,24.89,17.33,43.09,43.77,43.09,12.36,0,20.6-2.75,29.5-9.79l-8.57-14.42c-6.7,4.81-13.73,7.39-21.5,7.39-14.24-.18-24.71-10.47-24.71-26.27s10.47-26.09,24.71-26.27c7.75,0,14.78,2.57,21.5,7.38l8.57-14.42c-8.92-7-17.15-9.78-29.5-9.78-26.44,0-43.77,18.19-43.77,43.09Zm230-43.09c-10.29,0-17,4.81-21.63,12v-10H809.66v82.05h17.86v-46c0-13.58,5.83-21.12,17.5-21.12a28.73,28.73,0,0,1,11.15,2.06l5.5-16.82A38,38,0,0,0,849,800.36ZM370.7,809c-8.58-5.66-20.41-8.59-33.46-8.59-20.79,0-34.17,10-34.17,26.27,0,13.38,10,21.63,28.31,24.21l8.43,1.2c9.78,1.37,14.4,4,14.4,8.58,0,6.34-6.5,10-18.7,10-12.36,0-21.28-4-27.29-8.58l-8.39,13.91c9.79,7.21,22.15,10.65,35.53,10.65,23.7,0,37.43-11.16,37.43-26.78,0-14.42-10.81-22-28.67-24.54L335.71,834c-7.72-1-13.91-2.56-13.91-8.06,0-6,5.84-9.6,15.62-9.6a53,53,0,0,1,25.59,7L370.73,809Zm230.23-8.57c-10.3,0-17,4.81-21.62,12v-10H561.63v82.05h17.84v-46c0-13.58,5.84-21.12,17.5-21.12a28.82,28.82,0,0,1,11.16,2.06l5.5-16.82a38.06,38.06,0,0,0-12.71-2.24Zm-152.26,2H419.49V777.53h-18v24.89H384.81v16.31h16.64v37.43c0,19,7.39,30.38,28.5,30.38,7.74,0,16.66-2.4,22.32-6.35l-5.15-15.28a33,33,0,0,1-15.8,4.64c-8.92,0-11.83-5.5-11.83-13.73V818.75h29.18ZM181.9,884.49V833c0-19.39-12.35-32.44-32.28-32.62-10.47-.17-21.27,3.09-28.84,14.6-5.66-9.1-14.58-14.6-27.11-14.6-8.77,0-17.33,2.58-24,12.19V802.42H51.78v82.05h18V839c0-14.25,7.9-21.81,20.1-21.81,11.85,0,17.84,7.72,17.84,21.63v45.66h18V839c0-14.25,8.24-21.81,20.08-21.81,12.18,0,18,7.72,18,21.63v45.66Z"/><path class="cls-2" d="M990.35,611.56v-12h-3.13l-3.61,8.23-3.6-8.23h-3.13v12h2.22v-9l3.38,7.8h2.3l3.38-7.82v9.06h2.19Zm-19.82,0v-9.95h4v-2H964.31v2h4v9.95h2.22Z"/><path class="cls-3" d="M618,420.05A308.47,308.47,0,0,1,500,663h0a309.08,309.08,0,0,1,0-485.92h0A308.47,308.47,0,0,1,618,420.05Z"/><path class="cls-4" d="M500,663A307.62,307.62,0,0,1,309,729.1c-170.67,0-309-138.36-309-309S138.34,111,309,111a307.7,307.7,0,0,1,191,66.07h0A309.08,309.08,0,0,0,500,663Z"/><path class="cls-5" d="M1000,420.05c0,170.69-138.34,309.05-309,309.05A307.81,307.81,0,0,1,500,663h0a309.06,309.06,0,0,0,0-485.92h0A307.78,307.78,0,0,1,691,111c170.66,0,309,138.36,309,309Z"/></g></g></svg>