<svg xmlns="http://www.w3.org/2000/svg" viewBox="0 0 1000 1000"><defs><style>.cls-1{fill:#fefefe;}.cls-1,.cls-2,.cls-3,.cls-4{fill-rule:evenodd;}.cls-2{fill:#ffb700;}.cls-3{fill:#ffdf77;}.cls-4{fill:#ffce00;}</style></defs><g id="Color"><g id="Pago_en_efectivo" data-name="Pago en efectivo"><path class="cls-1" d="M317.75,542.47c-20.73,18.61-43.45,35.22-66.86,50.26C202.22,624,147.94,650.46,94,671.41c-17.84,6.93-39,10.94-56.77,1.67-11.7-6.09-19.41-16.67-23.49-29-3-9.14-4.32-19.89-6-29.42-13.79-77.09-7.84-167,7.69-243.91,3.85-19.07,12.93-44.82,33.19-51.67,9.72-3.28,20.74-3.09,30.71-1a63.07,63.07,0,0,1,9.26,2.83c66.35,24.7,125.73,55.53,181.53,99.29,15.8,12.39,33.12,25.27,47.64,39.1,9.47,9,18.23,19.24,20.58,32.52a43.74,43.74,0,0,1,.49,11c-1.12,14.64-8.95,30.85-21.07,39.68Z"/><path class="cls-2" d="M26.65,639.79c4.82,14.58,19.29,35.67,62.39,18.92,62.29-24.2,155.36-68.51,220.13-126.88a42.27,42.27,0,0,0,16-30.08c1.53-20-14.06-32-63.53-70.82C213,392.75,158.44,361.47,83.79,333.69a45,45,0,0,0-7.32-2.27c-5.14-1.09-14.81-2.39-23.54.56-12.64,4.28-20.47,23-24.21,41.47C25.16,391.08,2.07,505.89,21.1,612.26c1.34,7.49,3.26,20.6,5.55,27.53Z"/><path class="cls-3" d="M35,352.56h0a148.74,148.74,0,0,0-5,29.56l0-.34c12.65-4.29,30.64-6,56.16-2.82,81.5,10.05,165.19,56,210.56,83.6l12.28,7.3c-3.23-3.11-7-6.45-11.32-10.11h0l-.87-.74-.45-.37-2.73-2.28-.47-.38-.95-.78-.48-.4-.49-.4-1-.8-.5-.4-1-.82-.51-.41-1-.83-.52-.42-1.06-.85-.53-.43-.54-.43-.54-.43-.55-.44-.55-.44-1.12-.89-.56-.45-.57-.45-.57-.45-.57-.46-1.17-.92-.59-.46-.59-.47-.52-.41-.08-.06-.6-.48-.61-.48-.61-.48-.1-.08-.51-.4-.62-.49-.63-.49-.29-.23-.33-.26-.64-.5-.63-.5-.5-.39-.14-.12-.65-.5-.65-.51-.65-.52-.06,0-.6-.47-.66-.52-.67-.53-.26-.2-.41-.32-.68-.53-.68-.54-.48-.37-.21-.17-.69-.54-.69-.54-.7-.55C213,392.75,158.44,361.47,83.79,333.69a47,47,0,0,0-7.32-2.27c-5.14-1.08-14.81-2.38-23.54.57l-.52.18-.12.05-.5.2-.08,0-.49.22,0,0-.49.24-.12.05-.47.25-.1.06-.42.23-.09.05-.46.28-.12.08-.46.29-.09.06-.4.28-.09.07-.45.32-.11.09-.45.35h0l-.45.37-.07.06-.44.38-.09.09c-.14.12-.28.24-.41.37l0,0h0l-.43.4-.1.1-.42.42,0,.06-.39.41-.07.08c-.14.14-.27.29-.41.44l-.09.1-.41.47,0,.06-.36.43-.09.11-.38.47-.09.12-.37.48,0,0,0,0-.33.45-.11.15-.35.48-.11.16-.36.52h0Zm7-7.68-.45.34Zm-4.89,5-.37.48Zm-1,1.33-.36.51Zm-.39.57-.06.1-.37.57,0,.09-.36.57v0l0,0-.35.59,0,.09-.36.61-.05.1-.29.51-.08.15-.32.58-.08.15-.3.58,0,.06,0,.07-.28.57-.07.12-.3.61-.07.16-.31.63v0h0l-.3.63-.08.18-.28.64-.06.13Zm1-2.25-.3.64Zm-1,2.3h0Z"/><path class="cls-4" d="M30,381.78c12.65-4.29,30.64-6,56.16-2.82,81.5,10.05,165.19,56,210.56,83.6-38,109.76-204.51,188.32-204.51,188.32C72.32,631,53.1,612.44,34.59,475.06,29,433.28,28.28,403.3,30,381.78Z"/><path d="M417.76,339.45c17.94-2.29,36.06-2.22,54.12-2.05,12,.29,24.44,3.33,34.21,10.57,8.21,6.3,8.55,17.63,8.08,27.09-.78,16-4,33.2-15.79,44.91-9.78,10.27-23.73,15.66-37.65,17a147.81,147.81,0,0,1-40.3.41c-3.28,12.94-6.62,25.87-9.16,39-.7,3.83-2.25,8.39-6.55,9.34-5.06.9-10.23-.17-15.33.2-3.07,0-6.35.63-9.25-.67-2.75-1.62-1-5.17-1-7.67q5.58-27.46,11.26-54.9c1.09-5.31,2-10.69,3.86-15.78,14.51-.29,29-.12,43.55-.13,2.31-.24,4.36.89,6.35,1.89a72.62,72.62,0,0,0-1.66,12.56c7.46-4.12,13.79-9.88,20.44-15.15,7.43-6.34,14.92-12.66,21.61-19.79-9.75-12.2-19.76-24.21-29.67-36.29-2.85,4-1.25,10.75-6.08,13.26-6.92,1.52-14.11.42-21.12.47-8.35-.5-16.79,1.19-25-.86.28-6.46.64-13.35,4-19,2.35-3.62,7.22-3.66,11-4.36ZM535,382.35c13.93-3.49,29.19-4.85,42.84.52A22.85,22.85,0,0,1,592.09,399c3.26,12.88-1.44,25.78-3.25,38.51-1.92,13.2-4.43,26.31-6.65,39.48-.71,4.52-2.74,9.62-7.7,10.8a133.3,133.3,0,0,1-42.12,3.68c-9.88-1-21.14-3.09-27.29-11.74s-4.65-19.83-2.34-29.44c2.08-9.33,8.47-18,17.7-21.22,11.33-4.09,23.63-3.63,35.5-4.4,3-.39,6.58.24,9.07-1.87a23.73,23.73,0,0,0,1.07-15.5c-2.25-5.61-9.21-6.32-14.47-6-11,0-21.58,3.29-31.94,6.67-1.18-5.63-3-12.13.43-17.36,3.2-5.15,9.43-6.77,14.91-8.25Zm-7,70c-1.12,4.37-2.68,9.37-.55,13.66,5,6.23,13.9,7.39,21.35,6.12,3.71-.54,9.21-1.38,9.43-6.15.54-7.73,3.76-15.32,2.39-23.11-8.18-.42-16.51-.72-24.57,1C532,444.81,529.13,448.54,528,452.37Zm106.31-69c17.81-6.54,37.26-3.89,55.47-.54,3.38.89,7.41.87,10.09,3.46,1.85,2.52,1,5.76.57,8.58C694.19,429,688.68,463.26,681.9,497.3c-2.1,10.1-6.83,20.7-16.3,25.83-11.24,6.22-24.58,5.44-37,5.68-11.42.15-23.83-2.35-32.15-10.69-2.19-5.1,1.21-10.3,3-14.95a36.71,36.71,0,0,1,7.94,1.05,95.13,95.13,0,0,0,40.35,2.31c7.16-1.74,8.55-9.95,9.15-16.16-12.64,1.74-26.21,2.56-38-3.23A30.75,30.75,0,0,1,601.67,462c-1.38-19.1,2.43-38.35,9.39-56.1a39.25,39.25,0,0,1,23.25-22.61Zm19.09,16.88A27.74,27.74,0,0,0,635.74,412c-3.33,5.19-4.3,11.43-5.66,17.32C628,440,625.84,451,627.74,461.77c.69,4.64,5.29,7.1,9.46,8,7.38,1.63,15.14.69,22.38-1.19,2.44-.5,2.52-3.32,3.06-5.24,3.19-17.78,6.05-35.61,9.24-53.39.27-2.36,1.06-4.92-.14-7.17-5.45-3.16-12.22-3.75-18.34-2.61Zm98.05-20.48c11-1.83,22.92-.74,32.81,4.75A34.07,34.07,0,0,1,801,412.13c.62,12.91-2,25.75-5.11,38.19-2.81,10.44-7.18,20.89-15.29,28.33-14,13.53-35.81,16.38-53.8,10.38-10-3.26-17-12.38-19.48-22.31-4.71-17.25-.77-35.43,4.57-52.07,5.33-17.87,21.36-31.61,39.61-34.92Zm.24,23.49a22.8,22.8,0,0,0-14.85,14.83,113.69,113.69,0,0,0-6.08,35.09c.16,4.53.91,9.77,4.76,12.73,5.09,4,12.16,3.52,18.19,2.45s10.44-5.5,12.91-10.71c5.91-11.91,7.89-25.35,8.36-38.52.27-5.18-1-11.16-5.65-14.17-5.13-3.61-11.87-3.36-17.64-1.7ZM83.85,443.43C87.17,433.2,90.63,423,94,412.8q40.17,0,80.32,0c13.54,0,27.6,3.48,38.18,12.3,8.19,6.47,13.14,16.31,15,26.43,4.16,21.74-2.07,45.56-17.48,61.63-13.91,15-34.06,22.87-54.12,24.92-17.14,1.56-34.36.3-51.5-.42-4.94,20-8.94,40.16-13.58,60.21C77.92,597.3,65,596.53,52,596.3c6.3-31.54,13.61-62.89,20-94.44,21.4-.26,42.79,0,64.19-.1.07,6.58,0,13.17,0,19.76,18-15.25,35.48-31,53.33-46.44-13.25-16.67-26.75-33.17-39.84-50-1.8,6-3.46,12.06-4.93,18.15-20.3.29-40.6,0-60.92.17Zm408.34,62.79c11.59-5.87,25.38-5.78,37.69-2.35.29,5.35.88,11.71-2.78,16.1-6.17,3-13.82.7-19.8,4.3-4.69,4.13-3.69,11.17-4.57,16.77,6.49.79,13.11.08,19.54,1.51,1,5.62,1.38,12.47-2.63,17-5.7,3.58-12.93,1.84-19.29,2.54a18.53,18.53,0,0,0-3.33,8c-4.86,27.06-9.43,54.16-14.3,81.23-2.05,9.24-4.24,19.59-12.12,25.71-8.06,6.29-19,6.69-28.75,6.35-4-.49-9.12-.07-11.67-3.85-1-5.11.74-10.17,2.48-14.93,5.52-1.1,11.33,0,16.74-1.66,5.72-2,6.87-8.65,7.9-13.81,3.76-23.28,7.94-46.5,12.1-69.72.83-5.38,2.38-10.75,2.12-16.23-5.32-2-12.14-.26-16.26-4.92-3.34-4-1.81-10.07.47-14.23,4.62-4.79,11.9-.69,17.53-2.52,4-2.27,4.08-7.48,5-11.48,1.45-9.2,5.31-19.17,13.95-23.79ZM786.33,516c1.11-4.47,1.16-10.68,6-12.84,7-.74,14.06-.35,21.09-.42,2.9,8-.36,16.33-2.41,24.13-7,1.8-14.43,1.61-21.51.57-5.08-1.28-3.7-7.61-3.17-11.44Zm-392.68-8.32c17.44-3.09,35.29-2.13,52.79-.08a42.84,42.84,0,0,1,6.47,1.54c1,5.39,1,11.23-1.49,16.25-1.72,3.52-6,3.92-9.45,4-11.66.22-23.32-.25-35,.17-5.27.27-11.59,1.75-13.74,7.24-3.92,9.27-4.37,19.52-5.94,29.37,15.88,0,31.75-.05,47.62,0,2.59-.13,6.94.48,6.59,4a44.15,44.15,0,0,1-2.26,13.27c-1.17,3.51-5.14,4.92-8.56,4.75-13.82.09-27.66-.14-41.49,0a6.48,6.48,0,0,0-7.21,6c-1.11,9.45-4,18.92-3,28.47.44,5.06,6,6.61,10.22,6.75,13.41.3,26.85-.21,40.26.32,3,.1,2.52,3.77,3.06,5.89.75,5.72-.81,13.94-7.7,14.85-19.62,2.08-40.5,5.44-59.38-2.25-9-3.56-13.06-13.53-14.17-22.52-1.29-7.63.79-15.19,2-22.68,3.42-19.58,6.85-39.14,10.51-58.65,1.72-8.92,4.43-18,10.35-25.1a35.11,35.11,0,0,1,19.52-11.68Zm335.76,16.66c7.5-4.4,16.63-4.9,25.14-4.53.24,7.12-2.35,14-2,21.09,5.56.78,11.41.25,16.75,2.27,3.34,1.54,2.74,5.87,2.16,8.83-1,4-2.52,9.77-7.73,9.62-5.37,1.21-14.51-2-16.22,5.34-3.21,15.72-5.61,31.61-8.4,47.41a102.89,102.89,0,0,0-2,16.68c5.65,1.94,11.64,1.39,17.48,1,5,7.61.28,19.79-9.31,20.15-9.37-.06-19.91,1.78-28-4.19-6.05-4.41-7.28-12.63-6.27-19.59,2.78-21.81,7.79-43.29,10.4-65.14-6.05-1.63-13.53-.19-18.18-5.17-2.4-4.34-2-10.69,1.39-14.41,5.85-3.86,13.4-.61,19.66-3,4.14-4.45,1.5-11.58,5.07-16.31ZM559.83,541.44c10.46-1.2,22.11-2.38,31.45,3.6,12.18,7.51,17.15,22.78,16.89,36.47-.38,7.75.32,15.72-2.06,23.22-10.92,2.21-22.12.84-33.17,1.21-10.63.23-21.27-.45-31.88.22-3,7.43-1.72,17.34,5.49,21.85,5.51,2.69,11.88,2.25,17.86,2.26,11.15-.1,21.76-3.89,32.6-5.91,0,6.81,1.81,16-5,20.32-7.26,4-15.46,6-23.43,8.1-11.88,3-25,1.93-35.68-4.2-9.45-4.93-16.9-14.15-18.06-25a106.6,106.6,0,0,1,11.88-61.31c6.51-12.13,19.72-19.24,33.06-20.87Zm-6.29,26.23c-5.68,4.79-8,12.18-9,19.29,13,.15,26,.67,39-.32a18.27,18.27,0,0,0-2.54-17.29c-6.27-8.51-19.89-8.54-27.39-1.68Zm77.73-9.22c8.84-12.7,24.91-18.49,40-17.9,8.49.37,17.2,2,24.64,6.28,5.7,3.6,1.61,11,.86,16.1-.4,4.93-6.48,3.33-9.8,3.33-7.85.39-14.9-5.92-22.73-3.28a21.18,21.18,0,0,0-14.62,12.49A104.09,104.09,0,0,0,642,618.41c-.1,4.57,2.34,9.35,7,10.66,11.65,3.76,23.52-1,35-3.2.38,6.27,1.17,13.16-2.34,18.75-3.08,4.06-8.45,5.24-13.25,5.81-6.18.55-12.33,1.45-18.51,2.05-14.52.21-29-9.91-32.5-24.29-2.15-11.43-1-23.23.76-34.63,2.43-12.28,6-24.7,13.14-35.11ZM949.6,541.39c10.2-1.36,21-1.38,30.73,2.54,10.87,5.26,19,16.67,19.41,28.91,1.31,15-2.62,29.84-6.77,44.13-2.84,9.71-8.13,18.94-16.19,25.2-13.58,10.75-32.46,13.26-48.89,8.61-9.59-2.32-16.65-10.4-20.92-18.93-6-12.81-2.59-27.23-.26-40.49,2.53-14.58,8.07-29.58,19.53-39.49A46.24,46.24,0,0,1,949.6,541.39Zm2.67,22.28c-7.65,1.6-13.71,7.72-16.38,14.91-4,10.93-5.89,22.56-6.66,34.15-.27,4.51.4,9.65,4.06,12.79,6.69,5.53,16.63,5.23,24.1,1.46,5.74-3,9.13-8.94,10.55-15.05,2.56-11.41,6.76-22.79,5.67-34.68-.19-4.19-1.83-8.54-5.37-11C963.57,563.19,957.63,562.58,952.27,563.67ZM782.92,543.13a45.43,45.43,0,0,1,21.86-1c4,.59,2.43,5.51,2.4,8.27-4.79,29.47-10.49,58.79-15.44,88.23-.77,4.62-.91,11.61-6.84,12.49-6.12.63-12.7,1.21-18.59-1-1.68-2.78-1-6.14-.63-9.14q6.57-38.43,13-76.87c1.21-7,2.15-14.15,4.28-21Zm35.45.33c1.68-1.74,4.3-1.61,6.55-1.85,5.17-.13,10.48-.53,15.55.81,2.73.47,2.18,4.1,2.75,6.16,1,17.64,1.66,35.31,2.52,53,.54,10.2.57,20.52,3,30.5,7.06-6.83,9.37-16.65,13.14-25.38,8.61-21.27,16.71-42.75,26-63.73a59.43,59.43,0,0,1,23.24-.79c3.86,1,1.83,5.54.81,8.05-13.44,29.37-26.34,59-39.93,88.32-5.83,13.18-23,17-35.67,12.67-6.53-2.16-9.31-9.28-9.93-15.58-3.11-27.5-5.78-55-8.4-82.58-.2-3.19-.56-6.48.35-9.58Z"/></g></g></svg>