<svg xmlns="http://www.w3.org/2000/svg" viewBox="0 0 1000 1000"><defs><style>.cls-1{fill:#0077a6;}.cls-1,.cls-2{fill-rule:evenodd;}.cls-2{fill:#fff;}</style></defs><g id="Color"><g id="AE"><path class="cls-1" d="M43.3,919.74v-2.86A3.73,3.73,0,0,0,41.87,914a4.2,4.2,0,0,0,1.43-3.57c0-2.86-2.14-3.58-5-3.58H31.85v15H34v-6.44h4.29c2.15,0,2.15,1.43,2.15,2.14s.72,2.87.72,4.3H44v-1.43C43.3,920.46,43.3,920.46,43.3,919.74Zm-5-6.44H34V909h5c.71,0,2.15,0,2.15,2.15C41.16,912.58,39.72,913.3,38.29,913.3Z"/><path class="cls-1" d="M36.86,898.27A15.89,15.89,0,0,0,21.11,914c0,9.3,7.16,16.46,15.75,16.46A16.2,16.2,0,0,0,53.32,914C53.32,905.43,46.17,898.27,36.86,898.27Zm0,29.34A13.15,13.15,0,0,1,23.26,914a13.59,13.59,0,0,1,13.6-13.6c7.87,0,14.31,6.44,14.31,13.6C51.17,921.89,44.74,927.61,36.86,927.61Z"/><path class="cls-1" d="M932.88,624.89c0,21.47-13.6,31.48-37.94,31.48h-46.5V634.9h46.5c4.3,0,7.88-.71,9.32-2.14a9.15,9.15,0,0,0,2.86-6.44,10.93,10.93,0,0,0-2.86-7.16c-1.44-1.44-4.3-2.15-8.59-2.15-22.18-.72-50.1.71-50.1-30.77,0-14.32,9.3-30.07,34.35-30.07h48v21.48H883.5c-4.29,0-7.16,0-9.31,1.42-2.14,2.15-3.57,4.3-3.57,7.88s2.15,5.73,5,7.16a36.53,36.53,0,0,0,9.31,1.43h12.87c13.6,0,22.19,2.86,27.92,7.88C930,608.42,932.88,614.87,932.88,624.89Z"/><path class="cls-1" d="M832,603.42c-5.73-5-14.32-7.88-27.92-7.88H791.18a36.53,36.53,0,0,1-9.31-1.43c-2.86-1.43-5-3.58-5-7.16s.71-5.73,3.57-7.88c2.15-1.42,5-1.42,9.3-1.42h44.38V556.17h-48c-25.77,0-34.36,15.75-34.36,30.07,0,31.48,27.92,30,50.11,30.77,4.28,0,7.15.71,8.58,2.15a11,11,0,0,1,2.87,7.16,9.12,9.12,0,0,1-2.87,6.44c-2.15,1.43-5,2.14-9.31,2.14H754.67v21.47h46.52c24.33,0,37.93-10,37.93-31.48,0-10-2.86-16.47-7.15-21.47Z"/><polygon class="cls-1" points="740.36 635.62 683.83 635.62 683.83 615.58 738.93 615.58 738.93 595.55 683.83 595.55 683.83 576.94 740.36 576.94 740.36 556.18 660.21 556.18 660.21 656.37 740.36 656.37 740.36 635.62 740.36 635.62"/><path class="cls-1" d="M634.44,561.2c-7.87-4.3-17.17-5-29.34-5H550V656.37h24.33v-36.5H600.1c8.58,0,13.59.72,17.17,4.3,4.3,5,4.3,13.59,4.3,20v12.16h23.61V637c0-9.3-.71-13.59-3.58-18.6a27.85,27.85,0,0,0-12.16-8.59c6.44-2.14,17.18-10.73,17.18-26.48C646.62,571.93,642.32,565.48,634.44,561.2Z"/><path class="cls-1" d="M498.47,556.18H421.89L391.12,589.1l-29.35-32.92H265.16V656.37h95.19l30.77-32.92,29.34,32.92H467V622.74H497c20.75,0,41.52-5.73,41.52-33.64,0-27.19-21.48-32.92-40.09-32.92Z"/><path class="cls-2" d="M615.12,597.69c-3.57,1.43-7.15,1.43-11.45,1.43l-29.34.72V576.93h29.34c4.3,0,8.59,0,11.45,2.15a9.1,9.1,0,0,1,5,8.59A12.48,12.48,0,0,1,615.12,597.69Z"/><path class="cls-2" d="M498.47,602.7H467V576.93h31.49c8.59,0,14.31,3.59,14.31,12.17S507.06,602.7,498.47,602.7Z"/><polygon class="cls-2" points="406.15 606.27 443.36 566.92 443.36 647.79 406.15 606.27"/><polygon class="cls-2" points="348.18 635.62 288.77 635.62 288.77 615.58 341.73 615.58 341.73 595.55 288.77 595.55 288.77 576.94 348.89 576.94 375.37 606.28 348.18 635.62 348.18 635.62"/><path class="cls-1" d="M866.32,483.9H832l-45.09-75.15V483.9H738.22l-9.31-22.19H678.82l-9.31,22.19H641.6c-11.45,0-26.48-2.87-35.06-11.46-7.88-8.58-12.17-20-12.17-37.93,0-15,2.15-28.62,12.87-39.36,7.16-7.87,20-11.45,36.5-11.45h22.9v21.48h-22.9c-8.58,0-13.6,1.43-18.6,5.72-4.3,4.3-6.45,12.17-6.45,22.9s2.15,18.61,6.45,23.62c3.57,3.58,10,5,16.45,5h10.74l34.35-78.72h35.79l40.07,94.46V383.7h37.22L842,453.12V383.7h24.32V483.9Z"/><polygon class="cls-1" points="582.2 383.7 557.88 383.7 557.88 483.9 582.2 483.9 582.2 383.7 582.2 383.7"/><path class="cls-1" d="M531.39,388c-7.88-4.3-16.46-4.3-28.62-4.3H447.65V483.9h23.62V447.39H497c8.59,0,14.32.72,17.9,4.3,4.29,5,3.57,13.6,3.57,19.33V483.9h24.33v-20c0-8.59-.71-12.89-4.29-17.9a29.94,29.94,0,0,0-11.45-8.58c6.43-2.87,17.18-10.74,17.18-26.48,0-11.45-5-17.9-12.88-22.9Z"/><polygon class="cls-1" points="430.48 463.14 374.65 463.14 374.65 443.1 429.76 443.1 429.76 422.35 374.65 422.35 374.65 404.46 430.48 404.46 430.48 383.71 350.32 383.71 350.32 483.9 430.48 483.9 430.48 463.14 430.48 463.14"/><polygon class="cls-1" points="332.43 383.7 293.07 383.7 263.73 451.69 232.24 383.7 193.59 383.7 193.59 478.17 152.8 383.7 117.02 383.7 74.08 483.9 99.84 483.9 109.14 461.71 159.24 461.71 168.54 483.9 217.21 483.9 217.21 405.18 252.27 483.9 273.02 483.9 308.09 405.18 308.09 483.9 332.43 483.9 332.43 383.7 332.43 383.7 332.43 383.7"/><polygon class="cls-2" points="720.33 440.24 703.86 400.88 687.41 440.24 720.33 440.24"/><path class="cls-2" d="M512.78,424.5c-3.57,2.15-7.15,2.15-12.16,2.15H471.27V404.46h29.34c4.3,0,9.3,0,12.17,1.44,2.86,2.14,4.29,5,4.29,9.3S515.64,423.06,512.78,424.5Z"/><polygon class="cls-2" points="117.73 440.24 134.19 400.88 150.65 440.24 117.73 440.24"/><path class="cls-1" d="M927.16,69.52H73.36v360.7l29.34-66.55H165l8.59,16.46V363.67h73L263,399.45l15.75-35.78H511.35c10.73,0,20,2.14,27.2,7.87v-7.87h63.69v7.87c10.73-5.73,24.32-7.87,40.07-7.87h92.32l8.59,16.46V363.67h68l10,16.46V363.67h66.55V503.94H820.52l-12.88-21.47v21.47H723.9L714.6,481H693.84l-9.3,22.9H640.89c-17.18,0-30.07-4.3-38.65-8.59v8.59H498.47V471.73c0-4.29-.72-5-3.58-5h-3.57v37.21H290.92V486l-7.15,17.89H241.54l-7.15-17.17v17.17H153.52L144.93,481H124.17l-9.3,22.9H73.36v423h853.8V670c-9.31,4.29-22.19,6.44-35.07,6.44H829.82v-8.59c-7.15,5.73-20,8.59-32.2,8.59H601.52v-32.2c0-4.3-.71-4.3-4.29-4.3h-3.58v36.5H529.24V638.48c-10.73,5-22.9,5-33.63,5h-7.16v32.92H409.73l-18.61-21.47-20.75,21.47H243.69V536.14H372.51l18.61,21.47,20-21.47h86.59c10,0,26.48,1.43,33.64,8.58v-8.58h77.29c7.87,0,22.91,1.43,32.92,8.58v-8.58H758.25v8.59c6.45-5.73,18.62-8.58,29.35-8.58h65.12v8.58c7.17-5,17.18-8.58,30.06-8.58h44.38V69.52Z"/></g></g></svg>