<svg id="Capa_1" data-name="Capa 1" xmlns="http://www.w3.org/2000/svg" viewBox="0 0 1000 1000"><defs><style>.cls-1{fill:#434343;}.cls-2{fill:#b1b1b1;}</style></defs><g id="Visa"><path class="cls-1" d="M433.51,656.8h-81.6l51-313.41h81.61ZM283.27,343.39,205.47,559l-9.2-46.42h0L168.82,371.61s-3.32-28.22-38.71-28.22H1.51L0,348.7s39.33,8.18,85.35,35.82l70.9,272.29h85L371.08,343.39ZM925.08,656.8H1000L934.67,343.38H869.08c-30.29,0-37.67,23.36-37.67,23.36L709.72,656.8h85.06l17-46.55H915.52l9.56,46.55ZM835.29,545.94l42.87-117.29,24.12,117.29ZM716.1,418.76l11.64-67.31s-35.93-13.66-73.39-13.66c-40.49,0-136.65,17.7-136.65,103.76,0,81,112.86,82,112.86,124.5S529.33,601,495.92,574.14l-12.13,70.37s36.43,17.7,92.1,17.7,139.69-28.83,139.69-107.3c0-81.49-113.88-89.08-113.88-124.51s79.48-30.88,114.4-11.64Z"/><path class="cls-2" d="M196.28,512.55,168.82,371.6s-3.32-28.22-38.71-28.22H1.51L0,348.69s61.81,12.81,121.1,60.8C177.79,455.37,196.28,512.55,196.28,512.55Z"/></g></svg>