<svg xmlns="http://www.w3.org/2000/svg" viewBox="0 0 1000 1000"><defs><style>.cls-1{fill:#0079be;}.cls-2{fill:#fff;}.cls-3{fill:#211e1f;}</style></defs><g id="Color"><g id="Dinners_Club" data-name="Dinners Club"><path class="cls-1" d="M191.61,629.56c70.83.34,135.47-57.76,135.47-128.43,0-77.3-64.64-130.72-135.47-130.69h-61C59,370.41,0,423.85,0,501.13,0,571.82,59,629.9,130.66,629.56Z"/><path class="cls-2" d="M131,381.15a118.61,118.61,0,1,0,118.6,118.62A118.61,118.61,0,0,0,131,381.15ZM55.79,499.77A75.31,75.31,0,0,1,104,429.6V569.92A75.28,75.28,0,0,1,55.79,499.77ZM157.85,570V429.6a75.14,75.14,0,0,1,0,140.35Z"/><path class="cls-3" d="M368.61,426.18c0-12.25-6.39-11.45-12.52-11.58v-3.54c5.31.26,10.76.26,16.08.26,5.72,0,13.49-.26,23.58-.26,35.28,0,54.49,23.57,54.49,47.7,0,13.5-7.89,47.42-56.13,47.42-6.95,0-13.36-.26-19.76-.26-6.13,0-12.13.13-18.26.26v-3.53c8.17-.83,12.13-1.1,12.52-10.37v-66.1ZM382,490.11c0,10.49,7.5,11.71,14.18,11.71,29.43,0,39.1-22.21,39.1-42.52,0-25.48-16.35-43.87-42.65-43.87-5.59,0-8.16.4-10.63.54Zm73,12.54h2.58c3.81,0,6.55,0,6.55-4.51V461.21c0-6-2-6.82-7.09-9.53V449.5c6.4-1.93,14-4.5,14.58-4.91a4.88,4.88,0,0,1,2.45-.69c.68,0,1,.82,1,1.92v52.32c0,4.51,3,4.51,6.81,4.51h2.32v3.54c-4.64,0-9.41-.27-14.31-.27s-9.81.13-14.85.27v-3.54Zm14.58-79.73a6.69,6.69,0,0,1,0-13.37,6.69,6.69,0,0,1,6.68,6.56A6.81,6.81,0,0,1,469.6,422.92ZM497.12,462c0-5-1.51-6.4-7.9-9v-2.59a179.73,179.73,0,0,0,18-6.55c.41,0,.81.28.81,1.37v8.86c7.78-5.58,14.46-10.23,23.6-10.23,11.57,0,15.65,8.45,15.65,19.08v35.16c0,4.51,3,4.51,6.82,4.51h2.45v3.54c-4.78,0-9.54-.27-14.44-.27s-9.82.13-14.72.27v-3.54h2.45c3.82,0,6.53,0,6.53-4.51V462.85c0-7.78-4.74-11.59-12.52-11.59-4.35,0-11.31,3.55-15.82,6.55v40.33c0,4.51,3,4.51,6.83,4.51h2.45v3.54c-4.77,0-9.54-.27-14.45-.27s-9.81.13-14.71.27v-3.54h2.46c3.81,0,6.53,0,6.53-4.51V462Zm69.77,6.55c-.28,1.22-.28,3.27,0,7.9.81,12.94,9.14,23.57,20,23.57,7.51,0,13.38-4.09,18.41-9.12l1.9,1.91c-6.27,8.31-14,15.39-25.2,15.39-21.67,0-26-21-26-29.71,0-26.71,18-34.62,27.52-34.62,11,0,22.9,7,23,21.39a15.73,15.73,0,0,1-.13,2.47l-1.23.82ZM591,464.21c3.4,0,3.8-1.77,3.8-3.4,0-6.95-4.22-12.54-11.86-12.54-8.3,0-14,6.12-15.66,15.94Zm18.66,38.44h3.68c3.8,0,6.53,0,6.53-4.51V459.85c0-4.22-5-5-7.09-6.13v-2c10-4.23,15.41-7.78,16.64-7.78.81,0,1.21.41,1.21,1.78v12.26h.29c3.4-5.31,9.13-14,17.44-14,3.4,0,7.76,2.32,7.76,7.23,0,3.68-2.58,7-6.4,7-4.24,0-4.24-3.28-9-3.28-2.32,0-9.94,3.13-9.94,11.31v32c0,4.51,2.72,4.51,6.54,4.51H645v3.54c-7.49-.14-13.2-.27-19.07-.27-5.58,0-11.31.13-16.21.27v-3.54Zm52.46-15.41c1.77,9,7.22,16.63,17.17,16.63,8,0,11-4.9,11-9.67,0-16.09-29.69-10.91-29.69-32.85,0-7.63,6.14-17.45,21.12-17.45a35.8,35.8,0,0,1,15.52,4l1,13.88h-3.14c-1.36-8.57-6.13-13.48-14.86-13.48-5.45,0-10.62,3.13-10.62,9,0,16,31.61,11,31.61,32.43,0,9-7.23,18.54-23.44,18.54a35.93,35.93,0,0,1-16.62-4.63l-1.5-15.67Zm162.14-51.51h-3.4c-2.59-15.94-13.9-22.35-29.16-22.35-15.68,0-38.43,10.49-38.43,43.19,0,27.55,19.63,47.3,40.61,47.3,13.48,0,24.67-9.26,27.39-23.58l3.13.81L821.29,501c-5.72,3.55-21.12,7.23-30.12,7.23-31.88,0-52-20.58-52-51.24,0-27.94,24.93-48,51.64-48,11,0,21.66,3.55,32.15,7.24Zm4.91,66.92h2.58c3.82,0,6.56,0,6.56-4.51v-75.9c0-8.86-2.05-9.14-7.23-10.63v-2.18a87.1,87.1,0,0,0,14-5.87,14.25,14.25,0,0,1,3-1.5c.84,0,1.11.82,1.11,1.92v94.16c0,4.51,3,4.51,6.81,4.51h2.3v3.54c-4.61,0-9.38-.27-14.29-.27s-9.81.13-14.86.27v-3.54Zm87.49-4c0,2.47,1.49,2.6,3.81,2.6,1.64,0,3.67-.13,5.45-.13V504c-5.86.54-17,3.4-19.63,4.21l-.68-.41v-11c-8.17,6.67-14.44,11.44-24.13,11.44-7.35,0-15-4.77-15-16.21V457.13c0-3.55-.54-7-8.16-7.63v-2.6c4.91-.13,15.79-.95,17.57-.95,1.51,0,1.51.95,1.51,3.95v35.15c0,4.1,0,15.82,11.84,15.82,4.64,0,10.76-3.54,16.48-8.3V455.89c0-2.71-6.53-4.21-11.43-5.58v-2.45c12.25-.82,19.89-1.91,21.25-1.91,1.1,0,1.1.95,1.1,2.46v50.27Zm27.11-45c5.45-4.64,12.81-9.82,20.31-9.82,15.81,0,25.33,13.78,25.33,28.62,0,17.86-13.07,35.71-32.57,35.71-10.07,0-15.39-3.27-18.93-4.77l-4.08,3.13L931,505.1a161,161,0,0,0,1.9-24.26v-58.6c0-8.86-2-9.14-7.23-10.63v-2.18a85.94,85.94,0,0,0,14-5.87,14.19,14.19,0,0,1,3-1.5c.81,0,1.08.82,1.08,1.92v49.74h0Zm0,37.06c0,5.18,4.9,13.91,14,13.91,14.58,0,20.7-14.31,20.7-26.45,0-14.71-11.16-27-21.79-27-5,0-9.27,3.27-13,6.41v33.1ZM355.94,585.42h1c2.66,0,5.48-.36,5.48-4.22V542.35c0-3.86-2.82-4.23-5.48-4.23h-1V535.9c2.89,0,7.34.29,11,.29s8.15-.29,11.63-.29v2.22h-1c-2.66,0-5.48.37-5.48,4.23V581.2c0,3.86,2.82,4.22,5.48,4.22h1v2.24c-3.55,0-8-.29-11.71-.29s-8,.29-10.9.29Z"/><path class="cls-3" d="M378.56,588c-3.59,0-8-.29-11.72-.29s-8,.29-10.9.29h-.32v-2.86H357c2.69-.07,5.13-.28,5.16-3.91V542.35c0-3.62-2.47-3.86-5.16-3.91h-1.36v-2.87h.32c2.92,0,7.36.29,11,.29s8.13-.29,11.64-.29h.33v2.87h-1.37c-2.69,0-5.15.29-5.17,3.91V581.2c0,3.63,2.48,3.84,5.17,3.91h1.37V588Zm-.32-.63v-1.58h-.72c-2.65,0-5.8-.46-5.82-4.56V542.35c0-4.09,3.17-4.56,5.82-4.56h.72v-1.57c-3.43,0-7.72.29-11.32.29s-7.78-.27-10.65-.29v1.57H357c2.64,0,5.8.47,5.8,4.56V581.2c0,4.1-3.16,4.56-5.8,4.56h-.71v1.58c2.87,0,7.06-.3,10.57-.3S374.74,587.32,378.24,587.34ZM429.49,573l.15-.14V545.09c0-6.08-4.23-7-6.45-7h-1.64V535.9c3.49,0,6.9.29,10.38.29,3,0,6.1-.29,9.13-.29v2.22H440c-3.12,0-6.61.59-6.61,9.42v33.74a49.81,49.81,0,0,0,.44,7.49H431L392.79,546.2v30.56c0,6.45,1.25,8.66,7,8.66H401v2.24c-3.18,0-6.37-.29-9.56-.29s-6.74.29-10.08.29v-2.24h1c5.11,0,6.67-3.47,6.67-9.4V544.79a6.65,6.65,0,0,0-6.74-6.67h-1V535.9c2.82,0,5.71.29,8.52.29,2.22,0,4.38-.29,6.6-.29Z"/><path class="cls-3" d="M433.78,589.09l-3.06-.11L393.1,547v29.72c.09,6.44,1.07,8.27,6.65,8.35h1.59V588H401c-3.21,0-6.4-.29-9.56-.29-3.32,0-6.73.29-10.09.29H381v-2.86h1.36c4.9,0,6.3-3.18,6.36-9.09V544.79a6.35,6.35,0,0,0-6.43-6.35H381v-2.86h.32c2.83,0,5.74.28,8.52.28,2.21,0,4.35-.28,6.85-.17l32.59,36.68V545.1c0-5.9-4-6.61-6.13-6.66h-2v-2.86h.33c3.5,0,6.92.28,10.38.28,3,0,6.06-.28,9.12-.28h.33v2.86H440c-3.06.08-6.2.35-6.29,9.1v33.74a48.68,48.68,0,0,0,.44,7.43l.07.38Zm-2.81-.65h2.45a48.73,48.73,0,0,1-.39-7.16V547.54c0-8.9,3.73-9.75,6.92-9.75h.78v-1.57c-2.92,0-5.85.29-8.8.29-3.39,0-6.69-.27-10.05-.29v1.57h1.31c2.28,0,6.77,1,6.77,7.31l-.1,28-.15.15-.25.24-33-37.29c-2.2,0-4.35.29-6.61.29-2.72,0-5.5-.27-8.19-.29v1.57h.65a7,7,0,0,1,7.06,7V576c0,5.93-1.65,9.72-7,9.74l-.72,0v1.6c3.21,0,6.52-.3,9.76-.3s6.17.27,9.24.3v-1.58h-.94c-5.83,0-7.28-2.56-7.29-9V545.37ZM429.49,573l.24-.22Zm-.17-.15v0l-.06,0Zm22.84-33.29c-5.57,0-5.78,1.34-6.89,6.74H443c.3-2.07.67-4.14.89-6.3a43.63,43.63,0,0,0,.44-6.29h1.79c.59,2.22,2.45,2.15,4.46,2.15h38.24c2,0,3.86-.08,4-2.31l1.77.3c-.29,2-.58,4-.81,6s-.13,4-.13,6l-2.24.83c-.15-2.74-.52-7.13-5.48-7.13H473.82v39.45c0,5.72,2.6,6.37,6.14,6.37h1.42v2.24c-2.89,0-8.09-.29-12.09-.29-4.44,0-9.64.29-12.54.29v-2.24h1.42c4.09,0,6.15-.36,6.15-6.21V539.6Z"/><path class="cls-3" d="M481.39,588c-2.92,0-8.11-.29-12.09-.29-4.45,0-9.63.29-12.54.29h-.31v-2.86h1.72c4.09-.1,5.73-.15,5.82-5.9V539.92H452.16v-.65h12.48v39.94c0,5.95-2.4,6.55-6.47,6.55h-1.09v1.57c2.93,0,7.91-.29,12.22-.29,3.86,0,8.82.27,11.75.29v-1.57H480c-3.58,0-6.46-.88-6.46-6.71V539.27H486c5,0,5.62,4.25,5.79,7l1.6-.59c0-1.93,0-3.87.14-5.82s.49-3.8.77-5.7l-1.13-.19c-.35,2.16-2.43,2.27-4.3,2.25H450.23c-1.74,0-3.65-.08-4.31-2.15h-1.23a43.16,43.16,0,0,1-.43,6c-.22,2-.56,4-.84,6H445c1-5.17,1.62-6.85,7.15-6.77v.65c-5.48.1-5.37,1-6.58,6.51l-.05.25h-2.86l0-.39c.3-2.07.68-4.14.9-6.3a41.58,41.58,0,0,0,.45-6.24v-.33h2.35l0,.23c.51,1.88,1.88,1.89,3.77,1.92h38.62c2.07,0,3.57-.06,3.7-2l0-.35.33.07,2.1.33-.05.32c-.3,2-.59,4-.81,6s-.15,4-.15,6v.23l-.2.09-2.63.95,0-.43c-.19-2.79-.49-6.82-5.17-6.82H474.14v39.13c.07,5.6,2.29,6,5.82,6.05h1.74V588ZM497,585.42h1.05c2.66,0,5.48-.36,5.48-4.22V542.35c0-3.86-2.82-4.23-5.48-4.23H497V535.9c4.52,0,12.24.29,18.46.29s13.93-.29,19-.29c-.12,3.18-.05,8.08.17,11.34l-2.24.59c-.35-4.81-1.24-8.66-9-8.66H513v19.42h8.81c4.45,0,5.42-2.52,5.86-6.53h2.22q-.23,4.35-.22,8.68t.22,8.45l-2.22.44c-.44-4.44-.67-7.33-5.79-7.33H513v17.27c0,4.83,4.28,4.83,9,4.83,8.9,0,12.82-.61,15-9l2.08.51c-1,3.94-1.86,7.86-2.52,11.8-4.75,0-13.28-.29-19.94-.29s-15.5.29-19.73.29Z"/><path class="cls-3" d="M536.68,588c-4.76,0-13.29-.3-19.95-.3s-15.49.3-19.72.3h-.31v-2.86h1.35c2.69-.05,5.13-.28,5.16-3.91V542.35c0-3.62-2.47-3.86-5.16-3.91H496.7v-2.86H497c4.53,0,12.24.28,18.45.28s13.93-.28,19-.28h.34l0,.33c0,1.11-.07,2.43-.07,3.83,0,2.56.07,5.36.22,7.48v.27l-.25.07-2.6.68,0-.38c-.44-4.82-1.08-8.31-8.71-8.38h-10v18.77h8.51c4.27,0,5-2.22,5.54-6.22l0-.29h2.85v.33c-.14,2.89-.23,5.78-.23,8.67s.09,5.62.23,8.44v.26l-.27.07-2.58.51,0-.35c-.51-4.52-.55-7-5.47-7.06h-8.57v17c0,4.5,3.89,4.48,8.72,4.5,8.93-.05,12.51-.48,14.74-8.81l.07-.3.32.06,2.37.61-.07.31c-1,3.93-1.84,7.84-2.51,11.77l-.06.26Zm-.27-.64c.64-3.74,1.49-7.49,2.4-11.23l-1.47-.37c-2.22,8.3-6.52,9-15.27,9-4.67,0-9.35,0-9.37-5.14V562h9.22c5.17-.05,5.7,3.07,6.07,7.29l1.6-.33q-.21-4.09-.21-8.19c0-2.79.07-5.57.21-8.36H528c-.41,3.86-1.62,6.58-6.14,6.52H512.7V538.83h10.64c7.71-.05,9,3.93,9.32,8.59l1.6-.43c-.13-2.09-.22-4.77-.22-7.25,0-1.27,0-2.47.07-3.52-5,0-12.54.29-18.65.29s-13.59-.27-18.13-.29v1.57h.72c2.64,0,5.8.47,5.81,4.56V581.2c0,4.09-3.17,4.54-5.81,4.56h-.72v1.57c4.33,0,12.89-.29,19.4-.29s14.89.28,19.68.29Zm12.79-43.58c0-5.41-3-5.63-5.27-5.63H542.6v-2.23c2.38,0,7,.3,11.49.3s8-.3,11.94-.3c9.33,0,17.65,2.53,17.65,13.07,0,6.65-4.45,10.74-10.31,13l12.68,19c2.07,3.13,3.55,4,7.19,4.44v2.24c-2.45,0-4.82-.29-7.27-.29-2.29,0-4.67.29-7,.29a206.89,206.89,0,0,1-15.43-24H558.7V579.5c0,5.72,2.66,5.92,6.07,5.92h1.33v2.24c-4.23,0-8.52-.29-12.75-.29-3.56,0-7.05.29-10.75.29v-2.24h1.33c2.76,0,5.27-1.24,5.27-4ZM558.7,561h3.62c7.42,0,11.41-2.82,11.41-11.57,0-6.59-4.22-10.83-10.82-10.83a39.1,39.1,0,0,0-4.21.3V561Z"/><path class="cls-3" d="M593.24,588c-2.48,0-4.84-.29-7.28-.29-2.26,0-4.63.29-7.21.17A207.15,207.15,0,0,1,563.39,564H559v15.54c.08,5.58,2.32,5.53,5.75,5.62h1.66V588h-.33c-4.23,0-8.54-.29-12.75-.29-3.54,0-7,.29-10.74.29h-.32v-2.86h1.65c2.68,0,4.93-1.18,4.94-3.68V543.75c-.06-5.26-2.63-5.23-4.94-5.31h-1.65v-2.87h.32c2.4,0,7,.29,11.49.29s8-.29,11.94-.29c9.34,0,18,2.6,18,13.37,0,6.7-4.43,10.88-10.15,13.21l12.45,18.65c2.08,3.08,3.37,3.84,7,4.31l.27,0V588Zm-34.55-24.66h5.07l.09.16A230.1,230.1,0,0,0,579,587.34c2.26,0,4.64-.3,7-.3s4.65.25,7,.29v-1.62c-3.48-.44-5.11-1.47-7.14-4.55l-12.89-19.31.36-.15c5.8-2.28,10.09-6.25,10.1-12.77,0-10.28-8-12.67-17.32-12.71-3.91,0-7.47.29-11.94.29s-8.75-.27-11.17-.29v1.57h1c2.31,0,5.59.39,5.59,6v37.68c0,3-2.8,4.33-5.59,4.34h-1v1.56c3.56,0,6.94-.29,10.42-.29,4.15,0,8.33.28,12.43.29v-1.56h-1c-3.38,0-6.39-.43-6.39-6.28V563.31Zm0-2h-.32V538.56l.28,0a35.35,35.35,0,0,1,4.26-.29c6.75,0,11.14,4.39,11.15,11.15,0,8.86-4.26,11.86-11.74,11.87Zm3.63-.64c7.34-.06,11-2.61,11.11-11.23,0-6.48-4.07-10.5-10.52-10.52a30,30,0,0,0-3.9.27v21.48ZM643.58,573l.13-.14V545.09c0-6.08-4.22-7-6.44-7h-1.62V535.9c3.48,0,6.88.29,10.37.29,3.05,0,6.07-.29,9.13-.29v2.22H654c-3.12,0-6.6.59-6.6,9.42v33.74a49.85,49.85,0,0,0,.43,7.49h-2.81L606.88,546.2v30.56c0,6.45,1.26,8.66,7,8.66h1.26v2.24c-3.19,0-6.38-.29-9.56-.29-3.35,0-6.76.29-10.09.29v-2.24h1c5.12,0,6.68-3.47,6.68-9.4V544.79a6.65,6.65,0,0,0-6.74-6.67h-1V535.9c2.81,0,5.71.29,8.53.29,2.21,0,4.37-.29,6.59-.29Z"/><path class="cls-3" d="M647.88,589.08l-3.06-.1L607.19,547v29.71c.09,6.45,1.07,8.28,6.66,8.36h1.57V588h-.33c-3.2,0-6.38-.3-9.56-.3s-6.73.3-10.07.3h-.33v-2.86h1.36c4.89,0,6.3-3.18,6.34-9.11V544.79a6.32,6.32,0,0,0-6.4-6.35h-1.3v-2.87h.33c2.83,0,5.73.29,8.52.29,2.18,0,4.33-.29,6.82-.19l32.59,36.7V545.09c0-5.89-4-6.62-6.12-6.65h-2v-2.87h.32c3.51,0,6.92.29,10.39.29,3,0,6.06-.29,9.12-.29h.32v2.87H654c-3,.08-6.21.35-6.28,9.1v33.74a46.6,46.6,0,0,0,.44,7.44l0,.36Zm-2.82-.64h2.44a50.12,50.12,0,0,1-.4-7.16V547.54c0-8.9,3.76-9.73,6.93-9.75h.78v-1.57c-2.91,0-5.84.29-8.79.29-3.4,0-6.71-.27-10.07-.29v1.57h1.32c2.28,0,6.78,1,6.78,7.3l-.11,28-.14.15-.23.24-33-37.29c-2.21,0-4.35.29-6.6.29-2.74,0-5.51-.27-8.21-.29v1.57h.66a7,7,0,0,1,7.05,7V576c0,6-1.68,9.74-7,9.76h-.72v1.57c3.2,0,6.51-.29,9.76-.29s6.19.27,9.26.29v-1.57h-.94c-5.84,0-7.3-2.56-7.31-9V545.38ZM643.58,573l.22-.21Zm-.19-.14v0l0,0Zm23.68,4.15c-.75,2.52-1.64,4.46-1.64,5.78,0,2.23,3.12,2.59,5.56,2.59h.83v2.24c-3-.16-6-.29-9-.29-2.67,0-5.32.13-8,.29v-2.24h.45a6.7,6.7,0,0,0,6.44-4.82l11.87-34a62.67,62.67,0,0,0,2.76-9.2,38.1,38.1,0,0,0,6.73-3.18,1.61,1.61,0,0,1,.59-.15.52.52,0,0,1,.53.23c.22.58.43,1.26.67,1.85l13.64,38.78c.89,2.6,1.77,5.34,2.73,7.57.9,2.07,2.46,2.95,4.91,2.95h.44v2.24c-3.34-.16-6.68-.29-10.23-.29s-7.35.13-11.13.29v-2.24h.82c1.7,0,4.6-.28,4.6-2.14a23.65,23.65,0,0,0-1.5-5.34l-2.88-8.6H669.44Zm10.82-32.85h-.15l-6.89,21h13.86Z"/><path class="cls-3" d="M706.57,588c-3.34-.15-6.68-.3-10.21-.3s-7.33.15-11.12.3l-.33,0v-2.9h1.14c1.71,0,4.26-.39,4.26-1.81a23.33,23.33,0,0,0-1.46-5.24L686,569.66H669.67l-2.3,7.49c-.75,2.53-1.64,4.48-1.64,5.69,0,1.81,2.8,2.25,5.26,2.25h1.14V588l-.34,0c-3-.15-6-.3-8.95-.3-2.65,0-5.33.15-8,.3l-.34,0v-2.9h.77a6.34,6.34,0,0,0,6.13-4.59l11.87-34a85.89,85.89,0,0,0,3-9.41,36.67,36.67,0,0,0,6.73-3.18,2.24,2.24,0,0,1,.72-.17.93.93,0,0,1,.82.43c.21.62.44,1.27.66,1.88l13.66,38.78c.87,2.6,1.76,5.34,2.72,7.53.86,2,2.23,2.76,4.61,2.77h.76V588Zm-21-.66c3.67-.13,7.27-.27,10.81-.27s6.67.14,9.89.27v-1.55h-.1c-2.54,0-4.29-1-5.2-3.16s-1.88-5-2.74-7.6l-13.65-38.78c-.23-.59-.45-1.26-.64-1.79-.06-.07,0-.07-.11-.07h-.13a1.61,1.61,0,0,0-.44.1,27.34,27.34,0,0,1-6.6,3,61.56,61.56,0,0,1-2.75,9.26l-11.87,34a7.06,7.06,0,0,1-6.74,5h-.12v1.55c2.54-.13,5.11-.27,7.68-.27,2.87,0,5.8.14,8.63.27v-1.55H671c-2.41,0-5.79-.3-5.88-2.92,0-1.48.92-3.37,1.64-5.88l.32.1-.32-.11,2.44-7.93h17.29l3,8.82a22.1,22.1,0,0,1,1.51,5.44c-.1,2.28-3.23,2.44-4.91,2.48h-.5v1.55Zm-15.15-21.8,7.1-21.63h.4v.32l-.08,0,.08,0v-.32h.22l7,21.63Zm.89-.65h13L677.81,545Zm6.28-20.57.17,0Zm32.28-4.69c-5.57,0-5.79,1.34-6.9,6.74h-2.23c.29-2.07.67-4.14.9-6.3a43.63,43.63,0,0,0,.43-6.29h1.79c.59,2.22,2.45,2.15,4.44,2.15h38.27c2,0,3.84-.08,4-2.31l1.77.3c-.28,2-.58,4-.8,6s-.16,4-.16,6l-2.22.83c-.14-2.74-.51-7.13-5.48-7.13H731.5v39.45c0,5.72,2.6,6.37,6.15,6.37h1.4v2.24c-2.88,0-8.07-.29-12.08-.29-4.44,0-9.64.29-12.53.29v-2.24h1.41c4.08,0,6.16-.36,6.16-6.21V539.6Z"/><path class="cls-3" d="M739.06,588c-2.91,0-8.11-.29-12.09-.29-4.43,0-9.62.29-12.53.29h-.33v-2.86h1.74c4.08-.1,5.72-.15,5.83-5.9V539.92H709.85v-.65h12.47v39.94c0,5.95-2.4,6.53-6.47,6.55h-1.09v1.58c2.93,0,7.91-.3,12.21-.3,3.87,0,8.83.27,11.76.3v-1.58h-1.09c-3.57,0-6.46-.88-6.47-6.71V539.27h12.49c5,0,5.63,4.25,5.77,7l1.61-.59c0-1.93,0-3.87.15-5.81s.49-3.81.76-5.71l-1.12-.19c-.34,2.16-2.43,2.28-4.28,2.25H707.91c-1.75,0-3.64-.08-4.32-2.16h-1.21a44.19,44.19,0,0,1-.45,6c-.2,2-.56,4-.84,6h1.59c1-5.17,1.62-6.85,7.17-6.77v.65c-5.5.1-5.38,1-6.59,6.51l-.06.25h-2.86l0-.37c.31-2.09.68-4.16.89-6.31a41.81,41.81,0,0,0,.45-6.25v-.33h2.35l.06.23c.52,1.88,1.87,1.89,3.77,1.92h38.64c2.05,0,3.54-.07,3.67-2l0-.35.35.07,2.1.33-.05.32c-.31,2-.59,4-.81,6s-.15,4-.15,6v.23l-.21.09-2.63.95,0-.43c-.19-2.79-.48-6.82-5.16-6.82H731.82v39.13c.07,5.6,2.29,6,5.82,6.05h1.73V588Zm16-2.55h1c2.67,0,5.48-.36,5.48-4.22V542.35c0-3.86-2.81-4.23-5.48-4.23h-1V535.9c2.89,0,7.33.29,11,.29s8.17-.29,11.65-.29v2.22h-1c-2.67,0-5.5.37-5.5,4.23V581.2c0,3.86,2.83,4.22,5.5,4.22h1v2.24c-3.56,0-8-.29-11.71-.29s-8,.29-10.9.29Z"/><path class="cls-3" d="M777.68,588c-3.59,0-8-.3-11.72-.3s-8,.3-10.9.3h-.32v-2.86h1.36c2.68-.05,5.14-.28,5.15-3.91V542.35c0-3.62-2.47-3.86-5.15-3.91h-1.36v-2.86h.32c2.9,0,7.35.28,11,.28s8.15-.28,11.66-.28H778v2.86h-1.35c-2.71,0-5.14.29-5.18,3.91V581.2c0,3.63,2.47,3.86,5.18,3.91H778V588Zm-.34-.64v-1.57h-.7c-2.66,0-5.81-.47-5.81-4.56V542.35c0-4.09,3.15-4.56,5.81-4.56h.7v-1.57c-3.42,0-7.7.29-11.32.29s-7.76-.27-10.64-.29v1.57h.72c2.64,0,5.79.47,5.8,4.56V581.2c0,4.09-3.16,4.56-5.8,4.56h-.72v1.57c2.86,0,7.06-.29,10.58-.29s7.89.27,11.38.29Zm29.9-52.54c15.81,0,28.4,9.8,28.4,25.58,0,17.06-12.23,28.4-28,28.4s-27.73-10.68-27.73-26.62A27,27,0,0,1,807.24,534.79Zm1.12,50.72c14.39,0,16.89-12.69,16.89-23.51s-5.84-24-18.15-24c-13,0-16.83,11.56-16.83,21.49C790.27,572.82,796.35,585.51,808.36,585.51Z"/><path class="cls-3" d="M779.56,562.15a27.35,27.35,0,0,1,27.68-27.69v.64a26.67,26.67,0,0,0-27,27c0,15.76,11.87,26.28,27.44,26.29s27.68-11.19,27.71-28.08c0-15.59-12.42-25.24-28.1-25.26v-.64c15.93,0,28.69,9.91,28.73,25.9,0,17.24-12.41,28.69-28.34,28.72s-28-10.81-28.07-26.93ZM790,559.54c0-10,3.92-21.83,17.15-21.83,12.59,0,18.46,13.4,18.48,24.29s-2.56,23.81-17.21,23.81v-.62c14.09,0,16.54-12.37,16.57-23.19s-5.79-23.61-17.84-23.63c-12.72,0-16.48,11.3-16.51,21.17,0,13.21,6,25.62,17.78,25.65v.62C796.06,585.8,790,572.89,790,559.54ZM885.61,573l.15-.14V545.09c0-6.08-4.24-7-6.47-7h-1.6V535.9c3.48,0,6.88.29,10.36.29,3.05,0,6.09-.29,9.13-.29v2.22h-1.12c-3.11,0-6.6.59-6.6,9.42v33.74a48.49,48.49,0,0,0,.45,7.49H887.1L848.91,546.2v30.56c0,6.45,1.25,8.66,7,8.66h1.27v2.24c-3.19,0-6.37-.29-9.56-.29-3.34,0-6.76.29-10.1.29v-2.24h1c5.12,0,6.66-3.47,6.66-9.4V544.79a6.64,6.64,0,0,0-6.74-6.67h-1V535.9c2.82,0,5.72.29,8.53.29,2.23,0,4.37-.29,6.6-.29Z"/><path class="cls-3" d="M889.92,589.08l-3.07-.1L849.23,547v29.72c.08,6.44,1.06,8.27,6.63,8.33h1.6V588h-.32c-3.21,0-6.4-.29-9.56-.29-3.33,0-6.73.29-10.1.29h-.31v-2.88h1.36c4.89,0,6.29-3.16,6.35-9.07V544.79a6.34,6.34,0,0,0-6.43-6.35h-1.28v-2.86h.31c2.84,0,5.73.28,8.53.28,2.2,0,4.34-.28,6.85-.17l32.57,36.68V545.1c0-5.9-4-6.61-6.14-6.66h-1.94v-2.86h.33c3.49,0,6.91.28,10.36.28,3,0,6.07-.28,9.14-.28h.32v2.86h-1.44c-3,.08-6.21.36-6.27,9.1v33.74a49,49,0,0,0,.42,7.44l.06.36Zm-2.82-.64h2.43a50.19,50.19,0,0,1-.38-7.16V547.54c0-8.92,3.73-9.73,6.91-9.75h.8v-1.57c-2.92,0-5.85.29-8.82.29-3.37,0-6.69-.27-10-.29v1.57h1.31c2.29,0,6.77,1,6.77,7.31l-.08,28-.14.15-.24.24-33-37.29c-2.18,0-4.35.29-6.6.29-2.73,0-5.51-.27-8.21-.29v1.57h.65a7,7,0,0,1,7.07,7V576c0,5.93-1.66,9.72-7,9.74h-.73v1.57c3.22,0,6.52-.29,9.78-.29,3.09,0,6.16.27,9.24.29v-1.57h-1c-5.82,0-7.27-2.56-7.27-9V545.37ZM885.61,573l.23-.21Zm-.18-.14v0l-.06,0Zm23.67,4.15c-.73,2.52-1.63,4.46-1.63,5.78,0,2.23,3.12,2.59,5.55,2.59h.83v2.24c-3-.16-6-.29-9-.29-2.68,0-5.34.13-8,.29v-2.24h.42a6.71,6.71,0,0,0,6.46-4.82l11.88-34a62.51,62.51,0,0,0,2.73-9.2,39.2,39.2,0,0,0,6.76-3.18,1.51,1.51,0,0,1,.58-.15.48.48,0,0,1,.51.23c.23.58.46,1.26.68,1.85l13.64,38.78c.89,2.6,1.77,5.34,2.75,7.57.89,2.07,2.45,2.95,4.89,2.95h.45v2.24c-3.34-.16-6.68-.29-10.24-.29s-7.34.13-11.12.29v-2.24h.82c1.69,0,4.6-.28,4.6-2.14a23.65,23.65,0,0,0-1.5-5.34l-2.88-8.6H911.48Zm10.83-32.85h-.14l-6.91,21h13.88Z"/><path class="cls-3" d="M948.6,588c-3.34-.13-6.67-.29-10.21-.29s-7.33.16-11.11.29l-.33,0v-2.88h1.12c1.73,0,4.29-.41,4.29-1.83a23.45,23.45,0,0,0-1.48-5.24l-2.82-8.38H911.7l-2.3,7.49c-.74,2.54-1.62,4.48-1.6,5.68,0,1.82,2.77,2.28,5.22,2.28h1.13V588l-.32,0c-3-.13-6-.29-9-.29-2.66,0-5.33.16-8,.29l-.32,0v-2.88h.74a6.42,6.42,0,0,0,6.16-4.61l11.87-34c.94-2.75,2.28-6.45,2.94-9.4a38.47,38.47,0,0,0,6.74-3.19,1.91,1.91,0,0,1,.7-.15.81.81,0,0,1,.81.43c.23.58.44,1.25.69,1.85l13.63,38.79c.89,2.6,1.78,5.34,2.74,7.54.87,2,2.22,2.74,4.58,2.77h.78V588Zm-21-.65c3.67-.14,7.28-.28,10.81-.28s6.68.14,9.91.27v-1.55h-.12c-2.51,0-4.27-1-5.19-3.16s-1.86-5-2.74-7.59l-13.65-38.79c-.22-.59-.45-1.26-.63-1.77-.06-.09-.05-.09-.11-.09h-.14a1.43,1.43,0,0,0-.41.1,28.46,28.46,0,0,1-6.62,3,61.61,61.61,0,0,1-2.76,9.26l-11.87,34a7,7,0,0,1-6.75,5h-.11v1.55c2.55-.13,5.1-.27,7.68-.27,2.88,0,5.8.14,8.66.27v-1.55H913c-2.41,0-5.79-.29-5.88-2.93,0-1.47.94-3.36,1.65-5.87l.31.1-.31-.11,2.44-7.93h17.3l3,8.81a23.43,23.43,0,0,1,1.49,5.45c-.11,2.28-3.22,2.44-4.92,2.48h-.49v1.56ZM912.44,565.5l7.11-21.62h.38v.32l-.07,0,.07,0v-.32h.24l7,21.62Zm.89-.64h13L919.85,545Zm6.3-20.57.14,0Zm47.68,36.1c0,3,2.06,3.85,4.43,4.15a53.92,53.92,0,0,0,9.8-.14,10.66,10.66,0,0,0,7.11-4,17,17,0,0,0,2.3-5.34h2.15c-.82,4.22-1.86,8.39-2.75,12.61-6.51,0-13.05-.29-19.56-.29s-13,.29-19.58.29v-2.24h1c2.69,0,5.59-.36,5.59-5V542.35c0-3.86-2.9-4.23-5.59-4.23h-1V535.9c3.92,0,7.78.29,11.71.29s7.49-.29,11.28-.29v2.22h-1.87c-2.81,0-5,.08-5,4Z"/><path class="cls-3" d="M990.35,588c-6.53,0-13.06-.29-19.56-.29s-13.06.29-19.59.29h-.32v-2.86h1.35c2.69-.07,5.23-.25,5.26-4.65V542.34c0-3.6-2.55-3.85-5.26-3.9h-1.35v-2.86h.32c3.94,0,7.8.28,11.72.28,3.76,0,7.47-.28,11.28-.28h.3v2.86h-2.17c-2.87.08-4.66-.05-4.72,3.68v38.27c0,2.76,1.84,3.51,4.15,3.83,1.31.09,2.68.15,4.11.15a54.28,54.28,0,0,0,5.62-.29,10.36,10.36,0,0,0,6.9-3.87,16.52,16.52,0,0,0,2.24-5.24l.07-.24h2.79l-.07.39c-.84,4.24-1.86,8.38-2.76,12.6l-.06.26h-.25Zm-.27-.64c.86-4,1.83-8,2.63-12h-1.52a17,17,0,0,1-2.29,5.23,11,11,0,0,1-7.34,4.12,56.21,56.21,0,0,1-5.69.31c-1.43,0-2.83-.07-4.17-.16-2.41-.27-4.75-1.3-4.74-4.47V542.12c0-4.12,2.61-4.33,5.37-4.33h1.54v-1.57c-3.66,0-7.26.29-11,.29s-7.59-.27-11.4-.29v1.57h.71c2.65,0,5.89.47,5.89,4.55v38.12c0,4.8-3.23,5.3-5.89,5.3h-.71v1.57c6.41,0,12.82-.29,19.27-.29s12.88.28,19.29.29Zm2.12-53.54a7.81,7.81,0,1,1-7.81,7.83A7.67,7.67,0,0,1,992.2,533.79Zm0,14.16a6.35,6.35,0,1,0-6.2-6.33A6.29,6.29,0,0,0,992.2,548Zm-3.89-2.21v-.39c1-.13,1.13-.1,1.13-.7v-5.78c0-.81-.08-1.09-1.1-1v-.39h4c1.38,0,2.64.65,2.64,2.07a2.48,2.48,0,0,1-1.85,2.36l1.28,1.78a7.83,7.83,0,0,0,1.72,1.84v.26h-1.52c-.73,0-1.37-1.54-2.81-3.6h-.86v2.59c0,.52.18.49,1.14.62v.39Zm2.63-4.12h.92c1,0,1.48-.76,1.48-2a1.46,1.46,0,0,0-1.53-1.68h-.87Z"/><path class="cls-1" d="M191.61,629.56c70.83.34,135.47-57.76,135.47-128.43,0-77.3-64.64-130.72-135.47-130.69h-61C59,370.41,0,423.85,0,501.13,0,571.82,59,629.9,130.66,629.56Z"/><path class="cls-2" d="M131,381.15a118.61,118.61,0,1,0,118.6,118.62A118.61,118.61,0,0,0,131,381.15ZM55.79,499.77A75.31,75.31,0,0,1,104,429.6V569.92A75.28,75.28,0,0,1,55.79,499.77ZM157.85,570V429.6a75.14,75.14,0,0,1,0,140.35Z"/><path class="cls-3" d="M368.61,426.18c0-12.25-6.39-11.45-12.52-11.58v-3.54c5.31.26,10.76.26,16.08.26,5.72,0,13.49-.26,23.58-.26,35.28,0,54.49,23.57,54.49,47.7,0,13.5-7.89,47.42-56.13,47.42-6.95,0-13.36-.26-19.76-.26-6.13,0-12.13.13-18.26.26v-3.53c8.17-.83,12.13-1.1,12.52-10.37v-66.1ZM382,490.11c0,10.49,7.5,11.71,14.18,11.71,29.43,0,39.1-22.21,39.1-42.52,0-25.48-16.35-43.87-42.65-43.87-5.59,0-8.16.4-10.63.54Zm73,12.54h2.58c3.81,0,6.55,0,6.55-4.51V461.21c0-6-2-6.82-7.09-9.53V449.5c6.4-1.93,14-4.5,14.58-4.91a4.88,4.88,0,0,1,2.45-.69c.68,0,1,.82,1,1.92v52.32c0,4.51,3,4.51,6.81,4.51h2.32v3.54c-4.64,0-9.41-.27-14.31-.27s-9.81.13-14.85.27v-3.54Zm14.58-79.73a6.69,6.69,0,0,1,0-13.37,6.69,6.69,0,0,1,6.68,6.56A6.81,6.81,0,0,1,469.6,422.92ZM497.12,462c0-5-1.51-6.4-7.9-9v-2.59a179.73,179.73,0,0,0,18-6.55c.41,0,.81.28.81,1.37v8.86c7.78-5.58,14.46-10.23,23.6-10.23,11.57,0,15.65,8.45,15.65,19.08v35.16c0,4.51,3,4.51,6.82,4.51h2.45v3.54c-4.78,0-9.54-.27-14.44-.27s-9.82.13-14.72.27v-3.54h2.45c3.82,0,6.53,0,6.53-4.51V462.85c0-7.78-4.74-11.59-12.52-11.59-4.35,0-11.31,3.55-15.82,6.55v40.33c0,4.51,3,4.51,6.83,4.51h2.45v3.54c-4.77,0-9.54-.27-14.45-.27s-9.81.13-14.71.27v-3.54h2.46c3.81,0,6.53,0,6.53-4.51V462Zm69.77,6.55c-.28,1.22-.28,3.27,0,7.9.81,12.94,9.14,23.57,20,23.57,7.51,0,13.38-4.09,18.41-9.12l1.9,1.91c-6.27,8.31-14,15.39-25.2,15.39-21.67,0-26-21-26-29.71,0-26.71,18-34.62,27.52-34.62,11,0,22.9,7,23,21.39a15.73,15.73,0,0,1-.13,2.47l-1.23.82ZM591,464.21c3.4,0,3.8-1.77,3.8-3.4,0-6.95-4.22-12.54-11.86-12.54-8.3,0-14,6.12-15.66,15.94Zm18.66,38.44h3.68c3.8,0,6.53,0,6.53-4.51V459.85c0-4.22-5-5-7.09-6.13v-2c10-4.23,15.41-7.78,16.64-7.78.81,0,1.21.41,1.21,1.78v12.26h.29c3.4-5.31,9.13-14,17.44-14,3.4,0,7.76,2.32,7.76,7.23,0,3.68-2.58,7-6.4,7-4.24,0-4.24-3.28-9-3.28-2.32,0-9.94,3.13-9.94,11.31v32c0,4.51,2.72,4.51,6.54,4.51H645v3.54c-7.49-.14-13.2-.27-19.07-.27-5.58,0-11.31.13-16.21.27v-3.54Zm52.46-15.41c1.77,9,7.22,16.63,17.17,16.63,8,0,11-4.9,11-9.67,0-16.09-29.69-10.91-29.69-32.85,0-7.63,6.14-17.45,21.12-17.45a35.8,35.8,0,0,1,15.52,4l1,13.88h-3.14c-1.36-8.57-6.13-13.48-14.86-13.48-5.45,0-10.62,3.13-10.62,9,0,16,31.61,11,31.61,32.43,0,9-7.23,18.54-23.44,18.54a35.93,35.93,0,0,1-16.62-4.63l-1.5-15.67Zm162.14-51.51h-3.4c-2.59-15.94-13.9-22.35-29.16-22.35-15.68,0-38.43,10.49-38.43,43.19,0,27.55,19.63,47.3,40.61,47.3,13.48,0,24.67-9.26,27.39-23.58l3.13.81L821.29,501c-5.72,3.55-21.12,7.23-30.12,7.23-31.88,0-52-20.58-52-51.24,0-27.94,24.93-48,51.64-48,11,0,21.66,3.55,32.15,7.24Zm4.91,66.92h2.58c3.82,0,6.56,0,6.56-4.51v-75.9c0-8.86-2.05-9.14-7.23-10.63v-2.18a87.1,87.1,0,0,0,14-5.87,14.25,14.25,0,0,1,3-1.5c.84,0,1.11.82,1.11,1.92v94.16c0,4.51,3,4.51,6.81,4.51h2.3v3.54c-4.61,0-9.38-.27-14.29-.27s-9.81.13-14.86.27v-3.54Zm87.49-4c0,2.47,1.49,2.6,3.81,2.6,1.64,0,3.67-.13,5.45-.13V504c-5.86.54-17,3.4-19.63,4.21l-.68-.41v-11c-8.17,6.67-14.44,11.44-24.13,11.44-7.35,0-15-4.77-15-16.21V457.13c0-3.55-.54-7-8.16-7.63v-2.6c4.91-.13,15.79-.95,17.57-.95,1.51,0,1.51.95,1.51,3.95v35.15c0,4.1,0,15.82,11.84,15.82,4.64,0,10.76-3.54,16.48-8.3V455.89c0-2.71-6.53-4.21-11.43-5.58v-2.45c12.25-.82,19.89-1.91,21.25-1.91,1.1,0,1.1.95,1.1,2.46v50.27Zm27.11-45c5.45-4.64,12.81-9.82,20.31-9.82,15.81,0,25.33,13.78,25.33,28.62,0,17.86-13.07,35.71-32.57,35.71-10.07,0-15.39-3.27-18.93-4.77l-4.08,3.13L931,505.1a161,161,0,0,0,1.9-24.26v-58.6c0-8.86-2-9.14-7.23-10.63v-2.18a85.94,85.94,0,0,0,14-5.87,14.19,14.19,0,0,1,3-1.5c.81,0,1.08.82,1.08,1.92v49.74h0Zm0,37.06c0,5.18,4.9,13.91,14,13.91,14.58,0,20.7-14.31,20.7-26.45,0-14.71-11.16-27-21.79-27-5,0-9.27,3.27-13,6.41v33.1ZM355.94,585.42h1c2.66,0,5.48-.36,5.48-4.22V542.35c0-3.86-2.82-4.23-5.48-4.23h-1V535.9c2.89,0,7.34.29,11,.29s8.15-.29,11.63-.29v2.22h-1c-2.66,0-5.48.37-5.48,4.23V581.2c0,3.86,2.82,4.22,5.48,4.22h1v2.24c-3.55,0-8-.29-11.71-.29s-8,.29-10.9.29Z"/><path class="cls-3" d="M378.56,588c-3.59,0-8-.29-11.72-.29s-8,.29-10.9.29h-.32v-2.86H357c2.69-.07,5.13-.28,5.16-3.91V542.35c0-3.62-2.47-3.86-5.16-3.91h-1.36v-2.87h.32c2.92,0,7.36.29,11,.29s8.13-.29,11.64-.29h.33v2.87h-1.37c-2.69,0-5.15.29-5.17,3.91V581.2c0,3.63,2.48,3.84,5.17,3.91h1.37V588Zm-.32-.63v-1.58h-.72c-2.65,0-5.8-.46-5.82-4.56V542.35c0-4.09,3.17-4.56,5.82-4.56h.72v-1.57c-3.43,0-7.72.29-11.32.29s-7.78-.27-10.65-.29v1.57H357c2.64,0,5.8.47,5.8,4.56V581.2c0,4.1-3.16,4.56-5.8,4.56h-.71v1.58c2.87,0,7.06-.3,10.57-.3S374.74,587.32,378.24,587.34ZM429.49,573l.15-.14V545.09c0-6.08-4.23-7-6.45-7h-1.64V535.9c3.49,0,6.9.29,10.38.29,3,0,6.1-.29,9.13-.29v2.22H440c-3.12,0-6.61.59-6.61,9.42v33.74a49.81,49.81,0,0,0,.44,7.49H431L392.79,546.2v30.56c0,6.45,1.25,8.66,7,8.66H401v2.24c-3.18,0-6.37-.29-9.56-.29s-6.74.29-10.08.29v-2.24h1c5.11,0,6.67-3.47,6.67-9.4V544.79a6.65,6.65,0,0,0-6.74-6.67h-1V535.9c2.82,0,5.71.29,8.52.29,2.22,0,4.38-.29,6.6-.29Z"/><path class="cls-3" d="M433.78,589.09l-3.06-.11L393.1,547v29.72c.09,6.44,1.07,8.27,6.65,8.35h1.59V588H401c-3.21,0-6.4-.29-9.56-.29-3.32,0-6.73.29-10.09.29H381v-2.86h1.36c4.9,0,6.3-3.18,6.36-9.09V544.79a6.35,6.35,0,0,0-6.43-6.35H381v-2.86h.32c2.83,0,5.74.28,8.52.28,2.21,0,4.35-.28,6.85-.17l32.59,36.68V545.1c0-5.9-4-6.61-6.13-6.66h-2v-2.86h.33c3.5,0,6.92.28,10.38.28,3,0,6.06-.28,9.12-.28h.33v2.86H440c-3.06.08-6.2.35-6.29,9.1v33.74a48.68,48.68,0,0,0,.44,7.43l.07.38Zm-2.81-.65h2.45a48.73,48.73,0,0,1-.39-7.16V547.54c0-8.9,3.73-9.75,6.92-9.75h.78v-1.57c-2.92,0-5.85.29-8.8.29-3.39,0-6.69-.27-10.05-.29v1.57h1.31c2.28,0,6.77,1,6.77,7.31l-.1,28-.15.15-.25.24-33-37.29c-2.2,0-4.35.29-6.61.29-2.72,0-5.5-.27-8.19-.29v1.57h.65a7,7,0,0,1,7.06,7V576c0,5.93-1.65,9.72-7,9.74l-.72,0v1.6c3.21,0,6.52-.3,9.76-.3s6.17.27,9.24.3v-1.58h-.94c-5.83,0-7.28-2.56-7.29-9V545.37ZM429.49,573l.24-.22Zm-.17-.15v0l-.06,0Zm22.84-33.29c-5.57,0-5.78,1.34-6.89,6.74H443c.3-2.07.67-4.14.89-6.3a43.63,43.63,0,0,0,.44-6.29h1.79c.59,2.22,2.45,2.15,4.46,2.15h38.24c2,0,3.86-.08,4-2.31l1.77.3c-.29,2-.58,4-.81,6s-.13,4-.13,6l-2.24.83c-.15-2.74-.52-7.13-5.48-7.13H473.82v39.45c0,5.72,2.6,6.37,6.14,6.37h1.42v2.24c-2.89,0-8.09-.29-12.09-.29-4.44,0-9.64.29-12.54.29v-2.24h1.42c4.09,0,6.15-.36,6.15-6.21V539.6Z"/><path class="cls-3" d="M481.39,588c-2.92,0-8.11-.29-12.09-.29-4.45,0-9.63.29-12.54.29h-.31v-2.86h1.72c4.09-.1,5.73-.15,5.82-5.9V539.92H452.16v-.65h12.48v39.94c0,5.95-2.4,6.55-6.47,6.55h-1.09v1.57c2.93,0,7.91-.29,12.22-.29,3.86,0,8.82.27,11.75.29v-1.57H480c-3.58,0-6.46-.88-6.46-6.71V539.27H486c5,0,5.62,4.25,5.79,7l1.6-.59c0-1.93,0-3.87.14-5.82s.49-3.8.77-5.7l-1.13-.19c-.35,2.16-2.43,2.27-4.3,2.25H450.23c-1.74,0-3.65-.08-4.31-2.15h-1.23a43.16,43.16,0,0,1-.43,6c-.22,2-.56,4-.84,6H445c1-5.17,1.62-6.85,7.15-6.77v.65c-5.48.1-5.37,1-6.58,6.51l-.05.25h-2.86l0-.39c.3-2.07.68-4.14.9-6.3a41.58,41.58,0,0,0,.45-6.24v-.33h2.35l0,.23c.51,1.88,1.88,1.89,3.77,1.92h38.62c2.07,0,3.57-.06,3.7-2l0-.35.33.07,2.1.33-.05.32c-.3,2-.59,4-.81,6s-.15,4-.15,6v.23l-.2.09-2.63.95,0-.43c-.19-2.79-.49-6.82-5.17-6.82H474.14v39.13c.07,5.6,2.29,6,5.82,6.05h1.74V588ZM497,585.42h1.05c2.66,0,5.48-.36,5.48-4.22V542.35c0-3.86-2.82-4.23-5.48-4.23H497V535.9c4.52,0,12.24.29,18.46.29s13.93-.29,19-.29c-.12,3.18-.05,8.08.17,11.34l-2.24.59c-.35-4.81-1.24-8.66-9-8.66H513v19.42h8.81c4.45,0,5.42-2.52,5.86-6.53h2.22q-.23,4.35-.22,8.68t.22,8.45l-2.22.44c-.44-4.44-.67-7.33-5.79-7.33H513v17.27c0,4.83,4.28,4.83,9,4.83,8.9,0,12.82-.61,15-9l2.08.51c-1,3.94-1.86,7.86-2.52,11.8-4.75,0-13.28-.29-19.94-.29s-15.5.29-19.73.29Z"/><path class="cls-3" d="M536.68,588c-4.76,0-13.29-.3-19.95-.3s-15.49.3-19.72.3h-.31v-2.86h1.35c2.69-.05,5.13-.28,5.16-3.91V542.35c0-3.62-2.47-3.86-5.16-3.91H496.7v-2.86H497c4.53,0,12.24.28,18.45.28s13.93-.28,19-.28h.34l0,.33c0,1.11-.07,2.43-.07,3.83,0,2.56.07,5.36.22,7.48v.27l-.25.07-2.6.68,0-.38c-.44-4.82-1.08-8.31-8.71-8.38h-10v18.77h8.51c4.27,0,5-2.22,5.54-6.22l0-.29h2.85v.33c-.14,2.89-.23,5.78-.23,8.67s.09,5.62.23,8.44v.26l-.27.07-2.58.51,0-.35c-.51-4.52-.55-7-5.47-7.06h-8.57v17c0,4.5,3.89,4.48,8.72,4.5,8.93-.05,12.51-.48,14.74-8.81l.07-.3.32.06,2.37.61-.07.31c-1,3.93-1.84,7.84-2.51,11.77l-.06.26Zm-.27-.64c.64-3.74,1.49-7.49,2.4-11.23l-1.47-.37c-2.22,8.3-6.52,9-15.27,9-4.67,0-9.35,0-9.37-5.14V562h9.22c5.17-.05,5.7,3.07,6.07,7.29l1.6-.33q-.21-4.09-.21-8.19c0-2.79.07-5.57.21-8.36H528c-.41,3.86-1.62,6.58-6.14,6.52H512.7V538.83h10.64c7.71-.05,9,3.93,9.32,8.59l1.6-.43c-.13-2.09-.22-4.77-.22-7.25,0-1.27,0-2.47.07-3.52-5,0-12.54.29-18.65.29s-13.59-.27-18.13-.29v1.57h.72c2.64,0,5.8.47,5.81,4.56V581.2c0,4.09-3.17,4.54-5.81,4.56h-.72v1.57c4.33,0,12.89-.29,19.4-.29s14.89.28,19.68.29Zm12.79-43.58c0-5.41-3-5.63-5.27-5.63H542.6v-2.23c2.38,0,7,.3,11.49.3s8-.3,11.94-.3c9.33,0,17.65,2.53,17.65,13.07,0,6.65-4.45,10.74-10.31,13l12.68,19c2.07,3.13,3.55,4,7.19,4.44v2.24c-2.45,0-4.82-.29-7.27-.29-2.29,0-4.67.29-7,.29a206.89,206.89,0,0,1-15.43-24H558.7V579.5c0,5.72,2.66,5.92,6.07,5.92h1.33v2.24c-4.23,0-8.52-.29-12.75-.29-3.56,0-7.05.29-10.75.29v-2.24h1.33c2.76,0,5.27-1.24,5.27-4ZM558.7,561h3.62c7.42,0,11.41-2.82,11.41-11.57,0-6.59-4.22-10.83-10.82-10.83a39.1,39.1,0,0,0-4.21.3V561Z"/><path class="cls-3" d="M593.24,588c-2.48,0-4.84-.29-7.28-.29-2.26,0-4.63.29-7.21.17A207.15,207.15,0,0,1,563.39,564H559v15.54c.08,5.58,2.32,5.53,5.75,5.62h1.66V588h-.33c-4.23,0-8.54-.29-12.75-.29-3.54,0-7,.29-10.74.29h-.32v-2.86h1.65c2.68,0,4.93-1.18,4.94-3.68V543.75c-.06-5.26-2.63-5.23-4.94-5.31h-1.65v-2.87h.32c2.4,0,7,.29,11.49.29s8-.29,11.94-.29c9.34,0,18,2.6,18,13.37,0,6.7-4.43,10.88-10.15,13.21l12.45,18.65c2.08,3.08,3.37,3.84,7,4.31l.27,0V588Zm-34.55-24.66h5.07l.09.16A230.1,230.1,0,0,0,579,587.34c2.26,0,4.64-.3,7-.3s4.65.25,7,.29v-1.62c-3.48-.44-5.11-1.47-7.14-4.55l-12.89-19.31.36-.15c5.8-2.28,10.09-6.25,10.1-12.77,0-10.28-8-12.67-17.32-12.71-3.91,0-7.47.29-11.94.29s-8.75-.27-11.17-.29v1.57h1c2.31,0,5.59.39,5.59,6v37.68c0,3-2.8,4.33-5.59,4.34h-1v1.56c3.56,0,6.94-.29,10.42-.29,4.15,0,8.33.28,12.43.29v-1.56h-1c-3.38,0-6.39-.43-6.39-6.28V563.31Zm0-2h-.32V538.56l.28,0a35.35,35.35,0,0,1,4.26-.29c6.75,0,11.14,4.39,11.15,11.15,0,8.86-4.26,11.86-11.74,11.87Zm3.63-.64c7.34-.06,11-2.61,11.11-11.23,0-6.48-4.07-10.5-10.52-10.52a30,30,0,0,0-3.9.27v21.48ZM643.58,573l.13-.14V545.09c0-6.08-4.22-7-6.44-7h-1.62V535.9c3.48,0,6.88.29,10.37.29,3.05,0,6.07-.29,9.13-.29v2.22H654c-3.12,0-6.6.59-6.6,9.42v33.74a49.85,49.85,0,0,0,.43,7.49h-2.81L606.88,546.2v30.56c0,6.45,1.26,8.66,7,8.66h1.26v2.24c-3.19,0-6.38-.29-9.56-.29-3.35,0-6.76.29-10.09.29v-2.24h1c5.12,0,6.68-3.47,6.68-9.4V544.79a6.65,6.65,0,0,0-6.74-6.67h-1V535.9c2.81,0,5.71.29,8.53.29,2.21,0,4.37-.29,6.59-.29Z"/><path class="cls-3" d="M647.88,589.08l-3.06-.1L607.19,547v29.71c.09,6.45,1.07,8.28,6.66,8.36h1.57V588h-.33c-3.2,0-6.38-.3-9.56-.3s-6.73.3-10.07.3h-.33v-2.86h1.36c4.89,0,6.3-3.18,6.34-9.11V544.79a6.32,6.32,0,0,0-6.4-6.35h-1.3v-2.87h.33c2.83,0,5.73.29,8.52.29,2.18,0,4.33-.29,6.82-.19l32.59,36.7V545.09c0-5.89-4-6.62-6.12-6.65h-2v-2.87h.32c3.51,0,6.92.29,10.39.29,3,0,6.06-.29,9.12-.29h.32v2.87H654c-3,.08-6.21.35-6.28,9.1v33.74a46.6,46.6,0,0,0,.44,7.44l0,.36Zm-2.82-.64h2.44a50.12,50.12,0,0,1-.4-7.16V547.54c0-8.9,3.76-9.73,6.93-9.75h.78v-1.57c-2.91,0-5.84.29-8.79.29-3.4,0-6.71-.27-10.07-.29v1.57h1.32c2.28,0,6.78,1,6.78,7.3l-.11,28-.14.15-.23.24-33-37.29c-2.21,0-4.35.29-6.6.29-2.74,0-5.51-.27-8.21-.29v1.57h.66a7,7,0,0,1,7.05,7V576c0,6-1.68,9.74-7,9.76h-.72v1.57c3.2,0,6.51-.29,9.76-.29s6.19.27,9.26.29v-1.57h-.94c-5.84,0-7.3-2.56-7.31-9V545.38ZM643.58,573l.22-.21Zm-.19-.14v0l0,0Zm23.68,4.15c-.75,2.52-1.64,4.46-1.64,5.78,0,2.23,3.12,2.59,5.56,2.59h.83v2.24c-3-.16-6-.29-9-.29-2.67,0-5.32.13-8,.29v-2.24h.45a6.7,6.7,0,0,0,6.44-4.82l11.87-34a62.67,62.67,0,0,0,2.76-9.2,38.1,38.1,0,0,0,6.73-3.18,1.61,1.61,0,0,1,.59-.15.52.52,0,0,1,.53.23c.22.58.43,1.26.67,1.85l13.64,38.78c.89,2.6,1.77,5.34,2.73,7.57.9,2.07,2.46,2.95,4.91,2.95h.44v2.24c-3.34-.16-6.68-.29-10.23-.29s-7.35.13-11.13.29v-2.24h.82c1.7,0,4.6-.28,4.6-2.14a23.65,23.65,0,0,0-1.5-5.34l-2.88-8.6H669.44Zm10.82-32.85h-.15l-6.89,21h13.86Z"/><path class="cls-3" d="M706.57,588c-3.34-.15-6.68-.3-10.21-.3s-7.33.15-11.12.3l-.33,0v-2.9h1.14c1.71,0,4.26-.39,4.26-1.81a23.33,23.33,0,0,0-1.46-5.24L686,569.66H669.67l-2.3,7.49c-.75,2.53-1.64,4.48-1.64,5.69,0,1.81,2.8,2.25,5.26,2.25h1.14V588l-.34,0c-3-.15-6-.3-8.95-.3-2.65,0-5.33.15-8,.3l-.34,0v-2.9h.77a6.34,6.34,0,0,0,6.13-4.59l11.87-34a85.89,85.89,0,0,0,3-9.41,36.67,36.67,0,0,0,6.73-3.18,2.24,2.24,0,0,1,.72-.17.93.93,0,0,1,.82.43c.21.62.44,1.27.66,1.88l13.66,38.78c.87,2.6,1.76,5.34,2.72,7.53.86,2,2.23,2.76,4.61,2.77h.76V588Zm-21-.66c3.67-.13,7.27-.27,10.81-.27s6.67.14,9.89.27v-1.55h-.1c-2.54,0-4.29-1-5.2-3.16s-1.88-5-2.74-7.6l-13.65-38.78c-.23-.59-.45-1.26-.64-1.79-.06-.07,0-.07-.11-.07h-.13a1.61,1.61,0,0,0-.44.1,27.34,27.34,0,0,1-6.6,3,61.56,61.56,0,0,1-2.75,9.26l-11.87,34a7.06,7.06,0,0,1-6.74,5h-.12v1.55c2.54-.13,5.11-.27,7.68-.27,2.87,0,5.8.14,8.63.27v-1.55H671c-2.41,0-5.79-.3-5.88-2.92,0-1.48.92-3.37,1.64-5.88l.32.1-.32-.11,2.44-7.93h17.29l3,8.82a22.1,22.1,0,0,1,1.51,5.44c-.1,2.28-3.23,2.44-4.91,2.48h-.5v1.55Zm-15.15-21.8,7.1-21.63h.4v.32l-.08,0,.08,0v-.32h.22l7,21.63Zm.89-.65h13L677.81,545Zm6.28-20.57.17,0Zm32.28-4.69c-5.57,0-5.79,1.34-6.9,6.74h-2.23c.29-2.07.67-4.14.9-6.3a43.63,43.63,0,0,0,.43-6.29h1.79c.59,2.22,2.45,2.15,4.44,2.15h38.27c2,0,3.84-.08,4-2.31l1.77.3c-.28,2-.58,4-.8,6s-.16,4-.16,6l-2.22.83c-.14-2.74-.51-7.13-5.48-7.13H731.5v39.45c0,5.72,2.6,6.37,6.15,6.37h1.4v2.24c-2.88,0-8.07-.29-12.08-.29-4.44,0-9.64.29-12.53.29v-2.24h1.41c4.08,0,6.16-.36,6.16-6.21V539.6Z"/><path class="cls-3" d="M739.06,588c-2.91,0-8.11-.29-12.09-.29-4.43,0-9.62.29-12.53.29h-.33v-2.86h1.74c4.08-.1,5.72-.15,5.83-5.9V539.92H709.85v-.65h12.47v39.94c0,5.95-2.4,6.53-6.47,6.55h-1.09v1.58c2.93,0,7.91-.3,12.21-.3,3.87,0,8.83.27,11.76.3v-1.58h-1.09c-3.57,0-6.46-.88-6.47-6.71V539.27h12.49c5,0,5.63,4.25,5.77,7l1.61-.59c0-1.93,0-3.87.15-5.81s.49-3.81.76-5.71l-1.12-.19c-.34,2.16-2.43,2.28-4.28,2.25H707.91c-1.75,0-3.64-.08-4.32-2.16h-1.21a44.19,44.19,0,0,1-.45,6c-.2,2-.56,4-.84,6h1.59c1-5.17,1.62-6.85,7.17-6.77v.65c-5.5.1-5.38,1-6.59,6.51l-.06.25h-2.86l0-.37c.31-2.09.68-4.16.89-6.31a41.81,41.81,0,0,0,.45-6.25v-.33h2.35l.06.23c.52,1.88,1.87,1.89,3.77,1.92h38.64c2.05,0,3.54-.07,3.67-2l0-.35.35.07,2.1.33-.05.32c-.31,2-.59,4-.81,6s-.15,4-.15,6v.23l-.21.09-2.63.95,0-.43c-.19-2.79-.48-6.82-5.16-6.82H731.82v39.13c.07,5.6,2.29,6,5.82,6.05h1.73V588Zm16-2.55h1c2.67,0,5.48-.36,5.48-4.22V542.35c0-3.86-2.81-4.23-5.48-4.23h-1V535.9c2.89,0,7.33.29,11,.29s8.17-.29,11.65-.29v2.22h-1c-2.67,0-5.5.37-5.5,4.23V581.2c0,3.86,2.83,4.22,5.5,4.22h1v2.24c-3.56,0-8-.29-11.71-.29s-8,.29-10.9.29Z"/><path class="cls-3" d="M777.68,588c-3.59,0-8-.3-11.72-.3s-8,.3-10.9.3h-.32v-2.86h1.36c2.68-.05,5.14-.28,5.15-3.91V542.35c0-3.62-2.47-3.86-5.15-3.91h-1.36v-2.86h.32c2.9,0,7.35.28,11,.28s8.15-.28,11.66-.28H778v2.86h-1.35c-2.71,0-5.14.29-5.18,3.91V581.2c0,3.63,2.47,3.86,5.18,3.91H778V588Zm-.34-.64v-1.57h-.7c-2.66,0-5.81-.47-5.81-4.56V542.35c0-4.09,3.15-4.56,5.81-4.56h.7v-1.57c-3.42,0-7.7.29-11.32.29s-7.76-.27-10.64-.29v1.57h.72c2.64,0,5.79.47,5.8,4.56V581.2c0,4.09-3.16,4.56-5.8,4.56h-.72v1.57c2.86,0,7.06-.29,10.58-.29s7.89.27,11.38.29Zm29.9-52.54c15.81,0,28.4,9.8,28.4,25.58,0,17.06-12.23,28.4-28,28.4s-27.73-10.68-27.73-26.62A27,27,0,0,1,807.24,534.79Zm1.12,50.72c14.39,0,16.89-12.69,16.89-23.51s-5.84-24-18.15-24c-13,0-16.83,11.56-16.83,21.49C790.27,572.82,796.35,585.51,808.36,585.51Z"/><path class="cls-3" d="M779.56,562.15a27.35,27.35,0,0,1,27.68-27.69v.64a26.67,26.67,0,0,0-27,27c0,15.76,11.87,26.28,27.44,26.29s27.68-11.19,27.71-28.08c0-15.59-12.42-25.24-28.1-25.26v-.64c15.93,0,28.69,9.91,28.73,25.9,0,17.24-12.41,28.69-28.34,28.72s-28-10.81-28.07-26.93ZM790,559.54c0-10,3.92-21.83,17.15-21.83,12.59,0,18.46,13.4,18.48,24.29s-2.56,23.81-17.21,23.81v-.62c14.09,0,16.54-12.37,16.57-23.19s-5.79-23.61-17.84-23.63c-12.72,0-16.48,11.3-16.51,21.17,0,13.21,6,25.62,17.78,25.65v.62C796.06,585.8,790,572.89,790,559.54ZM885.61,573l.15-.14V545.09c0-6.08-4.24-7-6.47-7h-1.6V535.9c3.48,0,6.88.29,10.36.29,3.05,0,6.09-.29,9.13-.29v2.22h-1.12c-3.11,0-6.6.59-6.6,9.42v33.74a48.49,48.49,0,0,0,.45,7.49H887.1L848.91,546.2v30.56c0,6.45,1.25,8.66,7,8.66h1.27v2.24c-3.19,0-6.37-.29-9.56-.29-3.34,0-6.76.29-10.1.29v-2.24h1c5.12,0,6.66-3.47,6.66-9.4V544.79a6.64,6.64,0,0,0-6.74-6.67h-1V535.9c2.82,0,5.72.29,8.53.29,2.23,0,4.37-.29,6.6-.29Z"/><path class="cls-3" d="M889.92,589.08l-3.07-.1L849.23,547v29.72c.08,6.44,1.06,8.27,6.63,8.33h1.6V588h-.32c-3.21,0-6.4-.29-9.56-.29-3.33,0-6.73.29-10.1.29h-.31v-2.88h1.36c4.89,0,6.29-3.16,6.35-9.07V544.79a6.34,6.34,0,0,0-6.43-6.35h-1.28v-2.86h.31c2.84,0,5.73.28,8.53.28,2.2,0,4.34-.28,6.85-.17l32.57,36.68V545.1c0-5.9-4-6.61-6.14-6.66h-1.94v-2.86h.33c3.49,0,6.91.28,10.36.28,3,0,6.07-.28,9.14-.28h.32v2.86h-1.44c-3,.08-6.21.36-6.27,9.1v33.74a49,49,0,0,0,.42,7.44l.06.36Zm-2.82-.64h2.43a50.19,50.19,0,0,1-.38-7.16V547.54c0-8.92,3.73-9.73,6.91-9.75h.8v-1.57c-2.92,0-5.85.29-8.82.29-3.37,0-6.69-.27-10-.29v1.57h1.31c2.29,0,6.77,1,6.77,7.31l-.08,28-.14.15-.24.24-33-37.29c-2.18,0-4.35.29-6.6.29-2.73,0-5.51-.27-8.21-.29v1.57h.65a7,7,0,0,1,7.07,7V576c0,5.93-1.66,9.72-7,9.74h-.73v1.57c3.22,0,6.52-.29,9.78-.29,3.09,0,6.16.27,9.24.29v-1.57h-1c-5.82,0-7.27-2.56-7.27-9V545.37ZM885.61,573l.23-.21Zm-.18-.14v0l-.06,0Zm23.67,4.15c-.73,2.52-1.63,4.46-1.63,5.78,0,2.23,3.12,2.59,5.55,2.59h.83v2.24c-3-.16-6-.29-9-.29-2.68,0-5.34.13-8,.29v-2.24h.42a6.71,6.71,0,0,0,6.46-4.82l11.88-34a62.51,62.51,0,0,0,2.73-9.2,39.2,39.2,0,0,0,6.76-3.18,1.51,1.51,0,0,1,.58-.15.48.48,0,0,1,.51.23c.23.58.46,1.26.68,1.85l13.64,38.78c.89,2.6,1.77,5.34,2.75,7.57.89,2.07,2.45,2.95,4.89,2.95h.45v2.24c-3.34-.16-6.68-.29-10.24-.29s-7.34.13-11.12.29v-2.24h.82c1.69,0,4.6-.28,4.6-2.14a23.65,23.65,0,0,0-1.5-5.34l-2.88-8.6H911.48Zm10.83-32.85h-.14l-6.91,21h13.88Z"/><path class="cls-3" d="M948.6,588c-3.34-.13-6.67-.29-10.21-.29s-7.33.16-11.11.29l-.33,0v-2.88h1.12c1.73,0,4.29-.41,4.29-1.83a23.45,23.45,0,0,0-1.48-5.24l-2.82-8.38H911.7l-2.3,7.49c-.74,2.54-1.62,4.48-1.6,5.68,0,1.82,2.77,2.28,5.22,2.28h1.13V588l-.32,0c-3-.13-6-.29-9-.29-2.66,0-5.33.16-8,.29l-.32,0v-2.88h.74a6.42,6.42,0,0,0,6.16-4.61l11.87-34c.94-2.75,2.28-6.45,2.94-9.4a38.47,38.47,0,0,0,6.74-3.19,1.91,1.91,0,0,1,.7-.15.81.81,0,0,1,.81.43c.23.58.44,1.25.69,1.85l13.63,38.79c.89,2.6,1.78,5.34,2.74,7.54.87,2,2.22,2.74,4.58,2.77h.78V588Zm-21-.65c3.67-.14,7.28-.28,10.81-.28s6.68.14,9.91.27v-1.55h-.12c-2.51,0-4.27-1-5.19-3.16s-1.86-5-2.74-7.59l-13.65-38.79c-.22-.59-.45-1.26-.63-1.77-.06-.09-.05-.09-.11-.09h-.14a1.43,1.43,0,0,0-.41.1,28.46,28.46,0,0,1-6.62,3,61.61,61.61,0,0,1-2.76,9.26l-11.87,34a7,7,0,0,1-6.75,5h-.11v1.55c2.55-.13,5.1-.27,7.68-.27,2.88,0,5.8.14,8.66.27v-1.55H913c-2.41,0-5.79-.29-5.88-2.93,0-1.47.94-3.36,1.65-5.87l.31.1-.31-.11,2.44-7.93h17.3l3,8.81a23.43,23.43,0,0,1,1.49,5.45c-.11,2.28-3.22,2.44-4.92,2.48h-.49v1.56ZM912.44,565.5l7.11-21.62h.38v.32l-.07,0,.07,0v-.32h.24l7,21.62Zm.89-.64h13L919.85,545Zm6.3-20.57.14,0Zm47.68,36.1c0,3,2.06,3.85,4.43,4.15a53.92,53.92,0,0,0,9.8-.14,10.66,10.66,0,0,0,7.11-4,17,17,0,0,0,2.3-5.34h2.15c-.82,4.22-1.86,8.39-2.75,12.61-6.51,0-13.05-.29-19.56-.29s-13,.29-19.58.29v-2.24h1c2.69,0,5.59-.36,5.59-5V542.35c0-3.86-2.9-4.23-5.59-4.23h-1V535.9c3.92,0,7.78.29,11.71.29s7.49-.29,11.28-.29v2.22h-1.87c-2.81,0-5,.08-5,4Z"/><path class="cls-3" d="M990.35,588c-6.53,0-13.06-.29-19.56-.29s-13.06.29-19.59.29h-.32v-2.86h1.35c2.69-.07,5.23-.25,5.26-4.65V542.34c0-3.6-2.55-3.85-5.26-3.9h-1.35v-2.86h.32c3.94,0,7.8.28,11.72.28,3.76,0,7.47-.28,11.28-.28h.3v2.86h-2.17c-2.87.08-4.66-.05-4.72,3.68v38.27c0,2.76,1.84,3.51,4.15,3.83,1.31.09,2.68.15,4.11.15a54.28,54.28,0,0,0,5.62-.29,10.36,10.36,0,0,0,6.9-3.87,16.52,16.52,0,0,0,2.24-5.24l.07-.24h2.79l-.07.39c-.84,4.24-1.86,8.38-2.76,12.6l-.06.26h-.25Zm-.27-.64c.86-4,1.83-8,2.63-12h-1.52a17,17,0,0,1-2.29,5.23,11,11,0,0,1-7.34,4.12,56.21,56.21,0,0,1-5.69.31c-1.43,0-2.83-.07-4.17-.16-2.41-.27-4.75-1.3-4.74-4.47V542.12c0-4.12,2.61-4.33,5.37-4.33h1.54v-1.57c-3.66,0-7.26.29-11,.29s-7.59-.27-11.4-.29v1.57h.71c2.65,0,5.89.47,5.89,4.55v38.12c0,4.8-3.23,5.3-5.89,5.3h-.71v1.57c6.41,0,12.82-.29,19.27-.29s12.88.28,19.29.29Zm2.12-53.54a7.81,7.81,0,1,1-7.81,7.83A7.67,7.67,0,0,1,992.2,533.79Zm0,14.16a6.35,6.35,0,1,0-6.2-6.33A6.29,6.29,0,0,0,992.2,548Zm-3.89-2.21v-.39c1-.13,1.13-.1,1.13-.7v-5.78c0-.81-.08-1.09-1.1-1v-.39h4c1.38,0,2.64.65,2.64,2.07a2.48,2.48,0,0,1-1.85,2.36l1.28,1.78a7.83,7.83,0,0,0,1.72,1.84v.26h-1.52c-.73,0-1.37-1.54-2.81-3.6h-.86v2.59c0,.52.18.49,1.14.62v.39Zm2.63-4.12h.92c1,0,1.48-.76,1.48-2a1.46,1.46,0,0,0-1.53-1.68h-.87Z"/></g></g></svg>