<svg id="Capa_1" data-name="Capa 1" xmlns="http://www.w3.org/2000/svg" viewBox="0 0 1000 1000"><defs><style>.cls-1{fill:#d0d0d0;}.cls-2{fill:#5c5c5c;}</style></defs><g id="Deposito_Bancario" data-name="Deposito Bancario"><rect class="cls-1" y="233.57" width="1000" height="532.87" rx="27.32"/><path class="cls-2" d="M110.23,466.81V370.42H154q15.71,0,27.68,6a45.7,45.7,0,0,1,18.73,16.73q6.73,10.74,6.74,25.47T200.43,444a45.52,45.52,0,0,1-18.73,16.8q-12,6-27.68,6Zm22.31-18.32h20.38a36.17,36.17,0,0,0,16.73-3.64,26.53,26.53,0,0,0,11-10.4,34.08,34.08,0,0,0,0-31.74,26.62,26.62,0,0,0-11-10.33,36.17,36.17,0,0,0-16.73-3.65H132.54Z"/><path class="cls-2" d="M251.93,448.91h52.46v17.9H229.76V370.42H302.6v17.9H251.93Zm-1.66-39.66h46.41V426.6H250.27Z"/><path class="cls-2" d="M327.94,466.81V370.42h41.72q12.94,0,22.31,4.2a32.7,32.7,0,0,1,14.46,12q5.1,7.86,5.1,18.73a33.35,33.35,0,0,1-5.1,18.59A32.66,32.66,0,0,1,392,436q-9.36,4.2-22.31,4.2H340.33l9.92-10.05v36.63Zm22.31-34.15-9.92-10.6h28.09q10.33,0,15.43-4.41t5.09-12.26q0-8-5.09-12.39t-15.43-4.41H340.33l9.92-10.6Z"/><path class="cls-2" d="M481.34,468.46a58.63,58.63,0,0,1-21.14-3.72,49.88,49.88,0,0,1-16.8-10.46,47.64,47.64,0,0,1-11-15.84,52,52,0,0,1,0-39.66A47.21,47.21,0,0,1,443.47,383a51,51,0,0,1,16.8-10.47,60.94,60.94,0,0,1,41.93,0A50.39,50.39,0,0,1,518.87,383,50.28,50.28,0,0,1,530,438.51a47.78,47.78,0,0,1-11.08,15.84,50.85,50.85,0,0,1-16.67,10.39A57.08,57.08,0,0,1,481.34,468.46Zm-.14-19a31.65,31.65,0,0,0,11.92-2.2,28.71,28.71,0,0,0,16-16.12,35.72,35.72,0,0,0,0-25.06,29.64,29.64,0,0,0-6.34-9.78,27.68,27.68,0,0,0-9.57-6.33,31.91,31.91,0,0,0-12-2.2,31.44,31.44,0,0,0-11.91,2.2,28.65,28.65,0,0,0-9.57,6.33,29,29,0,0,0-6.4,9.78,35.52,35.52,0,0,0,0,25,29.07,29.07,0,0,0,6.33,9.85,27.8,27.8,0,0,0,9.57,6.34A32.15,32.15,0,0,0,481.2,449.46Z"/><path class="cls-2" d="M588.2,468.46a78.49,78.49,0,0,1-22.17-3.1q-10.6-3.09-17.08-8.05l7.58-16.8a55.24,55.24,0,0,0,14.66,7.23,54,54,0,0,0,17.15,2.82A35.47,35.47,0,0,0,599,449.25a12.5,12.5,0,0,0,6-3.65,8.23,8.23,0,0,0,1.93-5.37,7.27,7.27,0,0,0-3-6.13,24.86,24.86,0,0,0-8-3.71c-3.3-1-6.95-1.88-10.95-2.76s-8-1.95-12-3.23a50.8,50.8,0,0,1-10.94-5,24.33,24.33,0,0,1-8.06-8q-3.11-4.95-3.1-12.67a26.86,26.86,0,0,1,4.48-15.08q4.47-6.81,13.49-10.87t22.65-4.07a76,76,0,0,1,17.91,2.14A51.73,51.73,0,0,1,625,377.3l-6.89,16.94a58.82,58.82,0,0,0-13.49-5.72,49.65,49.65,0,0,0-13.22-1.86,31.29,31.29,0,0,0-10.61,1.52,12.55,12.55,0,0,0-5.92,3.92,9.14,9.14,0,0,0-1.79,5.58,7.12,7.12,0,0,0,3,6,23.83,23.83,0,0,0,8,3.65Q589,408.7,595,410.07t12,3.17a46.49,46.49,0,0,1,10.94,4.82,24.33,24.33,0,0,1,8.06,8q3.11,4.95,3.1,12.53a26,26,0,0,1-4.55,14.87Q620,460.2,611,464.33T588.2,468.46Z"/><path class="cls-2" d="M650.16,466.81V370.42h22.31v96.39Z"/><path class="cls-2" d="M721.08,466.81V388.59H690.24V370.42h84v18.17H743.39v78.22Z"/><path class="cls-2" d="M837.44,468.46a58.54,58.54,0,0,1-21.13-3.72,49.68,49.68,0,0,1-16.8-10.46,47.81,47.81,0,0,1-11-15.84,52,52,0,0,1,0-39.66A47.24,47.24,0,0,1,799.58,383a50.92,50.92,0,0,1,16.79-10.47,61,61,0,0,1,41.94,0A50.34,50.34,0,0,1,875,383a50.28,50.28,0,0,1,11.08,55.56A47.64,47.64,0,0,1,875,454.35a50.8,50.8,0,0,1-16.66,10.39A57.17,57.17,0,0,1,837.44,468.46Zm-.13-19a31.63,31.63,0,0,0,11.91-2.2,28.71,28.71,0,0,0,16-16.12,35.72,35.72,0,0,0,0-25.06,29.62,29.62,0,0,0-6.33-9.78,27.77,27.77,0,0,0-9.57-6.33,32,32,0,0,0-12-2.2,31.45,31.45,0,0,0-11.92,2.2,28.65,28.65,0,0,0-16,16.11,35.52,35.52,0,0,0,0,25,29.22,29.22,0,0,0,6.33,9.85,27.75,27.75,0,0,0,9.58,6.34A32.11,32.11,0,0,0,837.31,449.46Z"/><path class="cls-2" d="M93.7,614.57V518.18h47.1q18.18,0,27.33,6.89a21.64,21.64,0,0,1,9.16,18.17,23.12,23.12,0,0,1-3.72,13.15A24.32,24.32,0,0,1,163.38,565a34.68,34.68,0,0,1-14.87,3l2.62-5.65a41.22,41.22,0,0,1,16.11,3,24.28,24.28,0,0,1,10.95,8.75,24.69,24.69,0,0,1,3.92,14.18q0,12.39-9.78,19.35t-28.78,7Zm22.17-16.8h26q8.67,0,13.15-2.82t4.48-9q0-6.06-4.48-9t-13.15-3H114.22V557.7h23.83q8.12,0,12.46-2.82t4.34-8.61a9.45,9.45,0,0,0-4.34-8.47Q146.18,535,138.05,535H115.87Z"/><path class="cls-2" d="M192.16,614.57l43-96.39h22l43.1,96.39H276.85l-35.25-85.1h8.81L215,614.57Zm21.49-20.65L219.57,577h49.57l6.06,16.94Z"/><path class="cls-2" d="M316.1,614.57V518.18h18.45l56.87,69.4h-8.95v-69.4h22v96.39H386.19l-57-69.4h8.95v69.4Z"/><path class="cls-2" d="M479.28,616.23a57.76,57.76,0,0,1-20.73-3.65A48.16,48.16,0,0,1,431,586.34a52.8,52.8,0,0,1,0-39.93,47.81,47.81,0,0,1,11-15.84,49.7,49.7,0,0,1,16.59-10.39,57.41,57.41,0,0,1,20.79-3.65,56.84,56.84,0,0,1,22.66,4.34,44.05,44.05,0,0,1,17,12.73l-14.32,13.22a33.6,33.6,0,0,0-11-8.47,31,31,0,0,0-13.22-2.82,34,34,0,0,0-12.4,2.2,28,28,0,0,0-9.77,6.34,28.91,28.91,0,0,0-6.41,9.77,35.74,35.74,0,0,0,0,25.07,29,29,0,0,0,6.41,9.78,28.13,28.13,0,0,0,9.77,6.33,33.84,33.84,0,0,0,12.4,2.2,31,31,0,0,0,13.22-2.82,32.65,32.65,0,0,0,11-8.61L519.07,599a44.75,44.75,0,0,1-17,12.81A56.53,56.53,0,0,1,479.28,616.23Z"/><path class="cls-2" d="M525.27,614.57l43-96.39h22l43.1,96.39H610l-35.25-85.1h8.81l-35.39,85.1Zm21.48-20.65L552.67,577h49.58l6.06,16.94Z"/><path class="cls-2" d="M649.2,614.57V518.18h41.73q12.95,0,22.31,4.2a32.72,32.72,0,0,1,14.46,12q5.09,7.85,5.09,18.73a33.1,33.1,0,0,1-5.09,18.52,32.45,32.45,0,0,1-14.46,11.91q-9.37,4.13-22.31,4.13H661.6l9.91-9.78v36.63Zm22.31-34.15L661.6,570h28.09q10.32,0,15.42-4.48t5.1-12.32q0-8-5.1-12.4t-15.42-4.4H661.6l9.91-10.61Zm39,34.15-24.1-35h23.83l24.37,35Z"/><path class="cls-2" d="M756.2,614.57V518.18h22.31v96.39Z"/><path class="cls-2" d="M854,616.23a58.6,58.6,0,0,1-21.14-3.72A50.06,50.06,0,0,1,816,602a47.77,47.77,0,0,1-11-15.83,52.12,52.12,0,0,1,0-39.66,47.28,47.28,0,0,1,11.09-15.84,50.87,50.87,0,0,1,16.8-10.47,61.09,61.09,0,0,1,41.93,0,50.34,50.34,0,0,1,16.66,10.47,50.32,50.32,0,0,1,11.09,55.56,47.56,47.56,0,0,1-11.09,15.84,51,51,0,0,1-16.66,10.4A57.08,57.08,0,0,1,854,616.23Zm-.14-19a31.44,31.44,0,0,0,11.91-2.2,28.55,28.55,0,0,0,9.57-6.33,29,29,0,0,0,6.41-9.78,35.74,35.74,0,0,0,0-25.07,29.49,29.49,0,0,0-6.34-9.77,27.66,27.66,0,0,0-9.57-6.34,32.15,32.15,0,0,0-12-2.2,31.56,31.56,0,0,0-11.91,2.2,28.43,28.43,0,0,0-9.57,6.34,28.88,28.88,0,0,0-6.4,9.77,35.41,35.41,0,0,0,0,25,29.26,29.26,0,0,0,6.33,9.85,27.77,27.77,0,0,0,9.57,6.33A31.91,31.91,0,0,0,853.83,597.22Z"/></g></svg>